<?xml version="1.0" encoding="UTF-8"?>
<!DOCTYPE svg PUBLIC "-//W3C//DTD SVG 1.1//EN" "http://www.w3.org/Graphics/SVG/1.1/DTD/svg11.dtd">
<svg xmlns="http://www.w3.org/2000/svg" version="1.1" width="701px" height="702px" style="shape-rendering:geometricPrecision; text-rendering:geometricPrecision; image-rendering:optimizeQuality; fill-rule:evenodd; clip-rule:evenodd" xmlns:xlink="http://www.w3.org/1999/xlink">
<g><path style="opacity:1" fill="#fefefe" d="M -0.5,-0.5 C 233.167,-0.5 466.833,-0.5 700.5,-0.5C 700.5,233.5 700.5,467.5 700.5,701.5C 466.833,701.5 233.167,701.5 -0.5,701.5C -0.5,467.5 -0.5,233.5 -0.5,-0.5 Z"/></g>
<g><path style="opacity:1" fill="#000000" d="M 20.5,15.5 C 57.8333,15.5 95.1667,15.5 132.5,15.5C 132.5,52.8333 132.5,90.1667 132.5,127.5C 95.1667,127.5 57.8333,127.5 20.5,127.5C 20.5,90.1667 20.5,52.8333 20.5,15.5 Z"/></g>
<g><path style="opacity:1" fill="#000000" d="M 180.5,31.5 C 169.833,31.5 159.167,31.5 148.5,31.5C 148.5,26.1667 148.5,20.8333 148.5,15.5C 159.167,15.5 169.833,15.5 180.5,15.5C 180.5,20.8333 180.5,26.1667 180.5,31.5 Z"/></g>
<g><path style="opacity:1" fill="#000000" d="M 373.5,31.5 C 373.5,36.8333 373.5,42.1667 373.5,47.5C 368.167,47.5 362.833,47.5 357.5,47.5C 357.5,52.8333 357.5,58.1667 357.5,63.5C 346.5,63.5 335.5,63.5 324.5,63.5C 324.5,58.1667 324.5,52.8333 324.5,47.5C 303.167,47.5 281.833,47.5 260.5,47.5C 260.5,52.8333 260.5,58.1667 260.5,63.5C 255.167,63.5 249.833,63.5 244.5,63.5C 244.5,58.1667 244.5,52.8333 244.5,47.5C 239.167,47.5 233.833,47.5 228.5,47.5C 228.5,58.1667 228.5,68.8333 228.5,79.5C 244.5,79.5 260.5,79.5 276.5,79.5C 276.5,90.1667 276.5,100.833 276.5,111.5C 271.167,111.5 265.833,111.5 260.5,111.5C 260.5,106.167 260.5,100.833 260.5,95.5C 255.167,95.5 249.833,95.5 244.5,95.5C 244.5,100.833 244.5,106.167 244.5,111.5C 239.167,111.5 233.833,111.5 228.5,111.5C 228.5,106.167 228.5,100.833 228.5,95.5C 223.167,95.5 217.833,95.5 212.5,95.5C 212.5,100.833 212.5,106.167 212.5,111.5C 207.167,111.5 201.833,111.5 196.5,111.5C 196.5,100.833 196.5,90.1667 196.5,79.5C 185.833,79.5 175.167,79.5 164.5,79.5C 164.5,74.1667 164.5,68.8333 164.5,63.5C 169.833,63.5 175.167,63.5 180.5,63.5C 180.5,52.8333 180.5,42.1667 180.5,31.5C 185.833,31.5 191.167,31.5 196.5,31.5C 196.5,26.1667 196.5,20.8333 196.5,15.5C 212.5,15.5 228.5,15.5 244.5,15.5C 244.5,20.8333 244.5,26.1667 244.5,31.5C 249.833,31.5 255.167,31.5 260.5,31.5C 260.5,26.1667 260.5,20.8333 260.5,15.5C 265.833,15.5 271.167,15.5 276.5,15.5C 276.5,20.8333 276.5,26.1667 276.5,31.5C 281.833,31.5 287.167,31.5 292.5,31.5C 292.5,26.1667 292.5,20.8333 292.5,15.5C 314.167,15.5 335.833,15.5 357.5,15.5C 357.5,20.8333 357.5,26.1667 357.5,31.5C 362.833,31.5 368.167,31.5 373.5,31.5 Z"/></g>
<g><path style="opacity:1" fill="#000000" d="M 389.5,31.5 C 384.167,31.5 378.833,31.5 373.5,31.5C 373.5,26.1667 373.5,20.8333 373.5,15.5C 378.833,15.5 384.167,15.5 389.5,15.5C 389.5,20.8333 389.5,26.1667 389.5,31.5 Z"/></g>
<g><path style="opacity:1" fill="#000000" d="M 501.5,31.5 C 496.167,31.5 490.833,31.5 485.5,31.5C 485.5,42.1667 485.5,52.8333 485.5,63.5C 480.167,63.5 474.833,63.5 469.5,63.5C 469.5,47.5 469.5,31.5 469.5,15.5C 480.167,15.5 490.833,15.5 501.5,15.5C 501.5,20.8333 501.5,26.1667 501.5,31.5 Z"/></g>
<g><path style="opacity:1" fill="#000000" d="M 565.5,15.5 C 602.833,15.5 640.167,15.5 677.5,15.5C 677.5,52.8333 677.5,90.1667 677.5,127.5C 640.167,127.5 602.833,127.5 565.5,127.5C 565.5,90.1667 565.5,52.8333 565.5,15.5 Z"/></g>
<g><path style="opacity:1" fill="#fefefe" d="M 36.5,31.5 C 63.1667,31.5 89.8333,31.5 116.5,31.5C 116.5,58.1667 116.5,84.8333 116.5,111.5C 89.8333,111.5 63.1667,111.5 36.5,111.5C 36.5,84.8333 36.5,58.1667 36.5,31.5 Z"/></g>
<g><path style="opacity:1" fill="#fefefe" d="M 196.5,31.5 C 201.833,31.5 207.167,31.5 212.5,31.5C 212.5,42.1667 212.5,52.8333 212.5,63.5C 207.167,63.5 201.833,63.5 196.5,63.5C 196.5,52.8333 196.5,42.1667 196.5,31.5 Z"/></g>
<g><path style="opacity:1" fill="#fefffe" d="M 373.5,31.5 C 378.833,31.5 384.167,31.5 389.5,31.5C 389.5,36.8333 389.5,42.1667 389.5,47.5C 384.167,47.5 378.833,47.5 373.5,47.5C 373.5,42.1667 373.5,36.8333 373.5,31.5 Z"/></g>
<g><path style="opacity:1" fill="#000000" d="M 389.5,31.5 C 410.833,31.5 432.167,31.5 453.5,31.5C 453.5,36.8333 453.5,42.1667 453.5,47.5C 448.167,47.5 442.833,47.5 437.5,47.5C 437.5,52.8333 437.5,58.1667 437.5,63.5C 421.5,63.5 405.5,63.5 389.5,63.5C 389.5,84.8333 389.5,106.167 389.5,127.5C 384.167,127.5 378.833,127.5 373.5,127.5C 373.5,132.833 373.5,138.167 373.5,143.5C 362.5,143.5 351.5,143.5 340.5,143.5C 340.5,132.833 340.5,122.167 340.5,111.5C 335.167,111.5 329.833,111.5 324.5,111.5C 324.5,106.167 324.5,100.833 324.5,95.5C 329.833,95.5 335.167,95.5 340.5,95.5C 340.5,90.1667 340.5,84.8333 340.5,79.5C 346.167,79.5 351.833,79.5 357.5,79.5C 357.5,84.8333 357.5,90.1667 357.5,95.5C 362.833,95.5 368.167,95.5 373.5,95.5C 373.5,79.5 373.5,63.5 373.5,47.5C 378.833,47.5 384.167,47.5 389.5,47.5C 389.5,42.1667 389.5,36.8333 389.5,31.5 Z"/></g>
<g><path style="opacity:1" fill="#000000" d="M 501.5,31.5 C 506.833,31.5 512.167,31.5 517.5,31.5C 517.5,36.8333 517.5,42.1667 517.5,47.5C 517.5,42.1667 517.5,36.8333 517.5,31.5C 512.167,31.5 506.833,31.5 501.5,31.5 Z"/></g>
<g><path style="opacity:1" fill="#000000" d="M 533.5,47.5 C 533.5,42.1667 533.5,36.8333 533.5,31.5C 538.833,31.5 544.167,31.5 549.5,31.5C 549.5,36.8333 549.5,42.1667 549.5,47.5C 544.167,47.5 538.833,47.5 533.5,47.5 Z"/></g>
<g><path style="opacity:1" fill="#fefffe" d="M 581.5,31.5 C 608.167,31.5 634.833,31.5 661.5,31.5C 661.5,58.1667 661.5,84.8333 661.5,111.5C 634.833,111.5 608.167,111.5 581.5,111.5C 581.5,84.8333 581.5,58.1667 581.5,31.5 Z"/></g>
<g><path style="opacity:1" fill="#000000" d="M 52.5,47.5 C 68.5,47.5 84.5,47.5 100.5,47.5C 100.5,63.5 100.5,79.5 100.5,95.5C 84.5,95.5 68.5,95.5 52.5,95.5C 52.5,79.5 52.5,63.5 52.5,47.5 Z"/></g>
<g><path style="opacity:1" fill="#000000" d="M 164.5,63.5 C 159.167,63.5 153.833,63.5 148.5,63.5C 148.5,58.1667 148.5,52.8333 148.5,47.5C 153.833,47.5 159.167,47.5 164.5,47.5C 164.5,52.8333 164.5,58.1667 164.5,63.5 Z"/></g>
<g><path style="opacity:1" fill="#fefefe" d="M 324.5,63.5 C 335.5,63.5 346.5,63.5 357.5,63.5C 357.5,58.1667 357.5,52.8333 357.5,47.5C 362.833,47.5 368.167,47.5 373.5,47.5C 373.5,63.5 373.5,79.5 373.5,95.5C 368.167,95.5 362.833,95.5 357.5,95.5C 357.5,90.1667 357.5,84.8333 357.5,79.5C 351.833,79.5 346.167,79.5 340.5,79.5C 340.5,84.8333 340.5,90.1667 340.5,95.5C 335.167,95.5 329.833,95.5 324.5,95.5C 324.5,100.833 324.5,106.167 324.5,111.5C 319.167,111.5 313.833,111.5 308.5,111.5C 308.5,122.167 308.5,132.833 308.5,143.5C 303.167,143.5 297.833,143.5 292.5,143.5C 292.5,148.833 292.5,154.167 292.5,159.5C 297.833,159.5 303.167,159.5 308.5,159.5C 308.5,175.5 308.5,191.5 308.5,207.5C 303.167,207.5 297.833,207.5 292.5,207.5C 292.5,196.833 292.5,186.167 292.5,175.5C 287.167,175.5 281.833,175.5 276.5,175.5C 276.5,170.167 276.5,164.833 276.5,159.5C 265.833,159.5 255.167,159.5 244.5,159.5C 244.5,148.833 244.5,138.167 244.5,127.5C 249.833,127.5 255.167,127.5 260.5,127.5C 260.5,122.167 260.5,116.833 260.5,111.5C 265.833,111.5 271.167,111.5 276.5,111.5C 276.5,100.833 276.5,90.1667 276.5,79.5C 260.5,79.5 244.5,79.5 228.5,79.5C 228.5,68.8333 228.5,58.1667 228.5,47.5C 233.833,47.5 239.167,47.5 244.5,47.5C 244.5,52.8333 244.5,58.1667 244.5,63.5C 249.833,63.5 255.167,63.5 260.5,63.5C 260.5,58.1667 260.5,52.8333 260.5,47.5C 281.833,47.5 303.167,47.5 324.5,47.5C 324.5,52.8333 324.5,58.1667 324.5,63.5 Z"/></g>
<g><path style="opacity:1" fill="#000000" d="M 517.5,47.5 C 522.833,47.5 528.167,47.5 533.5,47.5C 533.5,52.8333 533.5,58.1667 533.5,63.5C 528.167,63.5 522.833,63.5 517.5,63.5C 517.5,58.1667 517.5,52.8333 517.5,47.5 Z"/></g>
<g><path style="opacity:1" fill="#000000" d="M 597.5,47.5 C 613.5,47.5 629.5,47.5 645.5,47.5C 645.5,63.5 645.5,79.5 645.5,95.5C 629.5,95.5 613.5,95.5 597.5,95.5C 597.5,79.5 597.5,63.5 597.5,47.5 Z"/></g>
<g><path style="opacity:1" fill="#000000" d="M 276.5,79.5 C 276.5,74.1667 276.5,68.8333 276.5,63.5C 281.833,63.5 287.167,63.5 292.5,63.5C 292.5,68.8333 292.5,74.1667 292.5,79.5C 287.167,79.5 281.833,79.5 276.5,79.5 Z"/></g>
<g><path style="opacity:1" fill="#000000" d="M 324.5,63.5 C 324.5,68.8333 324.5,74.1667 324.5,79.5C 319.167,79.5 313.833,79.5 308.5,79.5C 308.5,74.1667 308.5,68.8333 308.5,63.5C 313.833,63.5 319.167,63.5 324.5,63.5 Z"/></g>
<g><path style="opacity:1" fill="#000000" d="M 517.5,63.5 C 517.5,68.8333 517.5,74.1667 517.5,79.5C 512.167,79.5 506.833,79.5 501.5,79.5C 501.5,74.1667 501.5,68.8333 501.5,63.5C 506.833,63.5 512.167,63.5 517.5,63.5 Z"/></g>
<g><path style="opacity:1" fill="#fefffe" d="M 517.5,63.5 C 522.833,63.5 528.167,63.5 533.5,63.5C 533.5,68.8333 533.5,74.1667 533.5,79.5C 528.167,79.5 522.833,79.5 517.5,79.5C 517.5,74.1667 517.5,68.8333 517.5,63.5 Z"/></g>
<g><path style="opacity:1" fill="#000000" d="M 533.5,63.5 C 538.833,63.5 544.167,63.5 549.5,63.5C 549.5,74.1667 549.5,84.8333 549.5,95.5C 538.833,95.5 528.167,95.5 517.5,95.5C 517.5,90.1667 517.5,84.8333 517.5,79.5C 522.833,79.5 528.167,79.5 533.5,79.5C 533.5,74.1667 533.5,68.8333 533.5,63.5 Z"/></g>
<g><path style="opacity:1" fill="#000000" d="M 164.5,79.5 C 164.5,84.8333 164.5,90.1667 164.5,95.5C 159.167,95.5 153.833,95.5 148.5,95.5C 148.5,90.1667 148.5,84.8333 148.5,79.5C 153.833,79.5 159.167,79.5 164.5,79.5 Z"/></g>
<g><path style="opacity:1" fill="#fefefe" d="M 164.5,79.5 C 175.167,79.5 185.833,79.5 196.5,79.5C 196.5,90.1667 196.5,100.833 196.5,111.5C 191.167,111.5 185.833,111.5 180.5,111.5C 180.5,106.167 180.5,100.833 180.5,95.5C 175.167,95.5 169.833,95.5 164.5,95.5C 164.5,90.1667 164.5,84.8333 164.5,79.5 Z"/></g>
<g><path style="opacity:1" fill="#000000" d="M 437.5,111.5 C 432.167,111.5 426.833,111.5 421.5,111.5C 421.5,100.833 421.5,90.1667 421.5,79.5C 426.833,79.5 432.167,79.5 437.5,79.5C 437.5,90.1667 437.5,100.833 437.5,111.5 Z"/></g>
<g><path style="opacity:1" fill="#000000" d="M 164.5,95.5 C 169.833,95.5 175.167,95.5 180.5,95.5C 180.5,100.833 180.5,106.167 180.5,111.5C 175.167,111.5 169.833,111.5 164.5,111.5C 164.5,106.167 164.5,100.833 164.5,95.5 Z"/></g>
<g><path style="opacity:1" fill="#fefefe" d="M 228.5,111.5 C 223.167,111.5 217.833,111.5 212.5,111.5C 212.5,106.167 212.5,100.833 212.5,95.5C 217.833,95.5 223.167,95.5 228.5,95.5C 228.5,100.833 228.5,106.167 228.5,111.5 Z"/></g>
<g><path style="opacity:1" fill="#fefefe" d="M 260.5,111.5 C 255.167,111.5 249.833,111.5 244.5,111.5C 244.5,106.167 244.5,100.833 244.5,95.5C 249.833,95.5 255.167,95.5 260.5,95.5C 260.5,100.833 260.5,106.167 260.5,111.5 Z"/></g>
<g><path style="opacity:1" fill="#000000" d="M 517.5,95.5 C 517.5,106.167 517.5,116.833 517.5,127.5C 512.167,127.5 506.833,127.5 501.5,127.5C 501.5,116.833 501.5,106.167 501.5,95.5C 506.833,95.5 512.167,95.5 517.5,95.5 Z"/></g>
<g><path style="opacity:1" fill="#000000" d="M 164.5,111.5 C 164.5,122.167 164.5,132.833 164.5,143.5C 159.167,143.5 153.833,143.5 148.5,143.5C 148.5,132.833 148.5,122.167 148.5,111.5C 153.833,111.5 159.167,111.5 164.5,111.5 Z"/></g>
<g><path style="opacity:1" fill="#fefefe" d="M 164.5,111.5 C 169.833,111.5 175.167,111.5 180.5,111.5C 180.5,116.833 180.5,122.167 180.5,127.5C 185.833,127.5 191.167,127.5 196.5,127.5C 196.5,122.167 196.5,116.833 196.5,111.5C 201.833,111.5 207.167,111.5 212.5,111.5C 212.5,116.833 212.5,122.167 212.5,127.5C 217.833,127.5 223.167,127.5 228.5,127.5C 228.5,132.833 228.5,138.167 228.5,143.5C 207.167,143.5 185.833,143.5 164.5,143.5C 164.5,132.833 164.5,122.167 164.5,111.5 Z"/></g>
<g><path style="opacity:1" fill="#000000" d="M 180.5,111.5 C 185.833,111.5 191.167,111.5 196.5,111.5C 196.5,116.833 196.5,122.167 196.5,127.5C 191.167,127.5 185.833,127.5 180.5,127.5C 180.5,122.167 180.5,116.833 180.5,111.5 Z"/></g>
<g><path style="opacity:1" fill="#000000" d="M 212.5,111.5 C 217.833,111.5 223.167,111.5 228.5,111.5C 228.5,116.833 228.5,122.167 228.5,127.5C 223.167,127.5 217.833,127.5 212.5,127.5C 212.5,122.167 212.5,116.833 212.5,111.5 Z"/></g>
<g><path style="opacity:1" fill="#fefefe" d="M 228.5,111.5 C 233.833,111.5 239.167,111.5 244.5,111.5C 244.5,116.833 244.5,122.167 244.5,127.5C 239.167,127.5 233.833,127.5 228.5,127.5C 228.5,122.167 228.5,116.833 228.5,111.5 Z"/></g>
<g><path style="opacity:1" fill="#000000" d="M 244.5,111.5 C 249.833,111.5 255.167,111.5 260.5,111.5C 260.5,116.833 260.5,122.167 260.5,127.5C 255.167,127.5 249.833,127.5 244.5,127.5C 244.5,122.167 244.5,116.833 244.5,111.5 Z"/></g>
<g><path style="opacity:1" fill="#000000" d="M 276.5,111.5 C 281.833,111.5 287.167,111.5 292.5,111.5C 292.5,116.833 292.5,122.167 292.5,127.5C 287.167,127.5 281.833,127.5 276.5,127.5C 276.5,122.167 276.5,116.833 276.5,111.5 Z"/></g>
<g><path style="opacity:1" fill="#000000" d="M 324.5,111.5 C 324.5,122.167 324.5,132.833 324.5,143.5C 329.833,143.5 335.167,143.5 340.5,143.5C 340.5,148.833 340.5,154.167 340.5,159.5C 351.5,159.5 362.5,159.5 373.5,159.5C 373.5,164.833 373.5,170.167 373.5,175.5C 378.833,175.5 384.167,175.5 389.5,175.5C 389.5,180.833 389.5,186.167 389.5,191.5C 394.833,191.5 400.167,191.5 405.5,191.5C 405.5,196.833 405.5,202.167 405.5,207.5C 410.833,207.5 416.167,207.5 421.5,207.5C 421.5,212.833 421.5,218.167 421.5,223.5C 405.5,223.5 389.5,223.5 373.5,223.5C 373.5,212.833 373.5,202.167 373.5,191.5C 368.167,191.5 362.833,191.5 357.5,191.5C 357.5,186.167 357.5,180.833 357.5,175.5C 351.833,175.5 346.167,175.5 340.5,175.5C 340.5,180.833 340.5,186.167 340.5,191.5C 335.167,191.5 329.833,191.5 324.5,191.5C 324.5,196.833 324.5,202.167 324.5,207.5C 319.167,207.5 313.833,207.5 308.5,207.5C 308.5,191.5 308.5,175.5 308.5,159.5C 303.167,159.5 297.833,159.5 292.5,159.5C 292.5,154.167 292.5,148.833 292.5,143.5C 297.833,143.5 303.167,143.5 308.5,143.5C 308.5,132.833 308.5,122.167 308.5,111.5C 313.833,111.5 319.167,111.5 324.5,111.5 Z"/></g>
<g><path style="opacity:1" fill="#fefefe" d="M 324.5,111.5 C 329.833,111.5 335.167,111.5 340.5,111.5C 340.5,122.167 340.5,132.833 340.5,143.5C 335.167,143.5 329.833,143.5 324.5,143.5C 324.5,132.833 324.5,122.167 324.5,111.5 Z"/></g>
<g><path style="opacity:1" fill="#fefffe" d="M 373.5,127.5 C 368.167,127.5 362.833,127.5 357.5,127.5C 357.5,122.167 357.5,116.833 357.5,111.5C 362.833,111.5 368.167,111.5 373.5,111.5C 373.5,116.833 373.5,122.167 373.5,127.5 Z"/></g>
<g><path style="opacity:1" fill="#000000" d="M 421.5,111.5 C 421.5,116.833 421.5,122.167 421.5,127.5C 416.167,127.5 410.833,127.5 405.5,127.5C 405.5,122.167 405.5,116.833 405.5,111.5C 410.833,111.5 416.167,111.5 421.5,111.5 Z"/></g>
<g><path style="opacity:1" fill="#000000" d="M 437.5,111.5 C 442.833,111.5 448.167,111.5 453.5,111.5C 453.5,116.833 453.5,122.167 453.5,127.5C 458.833,127.5 464.167,127.5 469.5,127.5C 469.5,148.833 469.5,170.167 469.5,191.5C 464.167,191.5 458.833,191.5 453.5,191.5C 453.5,180.833 453.5,170.167 453.5,159.5C 442.833,159.5 432.167,159.5 421.5,159.5C 421.5,164.833 421.5,170.167 421.5,175.5C 416.167,175.5 410.833,175.5 405.5,175.5C 405.5,170.167 405.5,164.833 405.5,159.5C 400.167,159.5 394.833,159.5 389.5,159.5C 389.5,154.167 389.5,148.833 389.5,143.5C 405.5,143.5 421.5,143.5 437.5,143.5C 437.5,132.833 437.5,122.167 437.5,111.5 Z"/></g>
<g><path style="opacity:1" fill="#000000" d="M 469.5,127.5 C 469.5,122.167 469.5,116.833 469.5,111.5C 474.833,111.5 480.167,111.5 485.5,111.5C 485.5,116.833 485.5,122.167 485.5,127.5C 480.167,127.5 474.833,127.5 469.5,127.5 Z"/></g>
<g><path style="opacity:1" fill="#000000" d="M 533.5,159.5 C 533.5,154.167 533.5,148.833 533.5,143.5C 528.167,143.5 522.833,143.5 517.5,143.5C 517.5,138.167 517.5,132.833 517.5,127.5C 522.833,127.5 528.167,127.5 533.5,127.5C 533.5,122.167 533.5,116.833 533.5,111.5C 538.833,111.5 544.167,111.5 549.5,111.5C 549.5,127.5 549.5,143.5 549.5,159.5C 544.167,159.5 538.833,159.5 533.5,159.5 Z"/></g>
<g><path style="opacity:1" fill="#000000" d="M 228.5,127.5 C 233.833,127.5 239.167,127.5 244.5,127.5C 244.5,138.167 244.5,148.833 244.5,159.5C 255.167,159.5 265.833,159.5 276.5,159.5C 276.5,164.833 276.5,170.167 276.5,175.5C 281.833,175.5 287.167,175.5 292.5,175.5C 292.5,186.167 292.5,196.833 292.5,207.5C 287.167,207.5 281.833,207.5 276.5,207.5C 276.5,212.833 276.5,218.167 276.5,223.5C 271.167,223.5 265.833,223.5 260.5,223.5C 260.5,207.5 260.5,191.5 260.5,175.5C 255.167,175.5 249.833,175.5 244.5,175.5C 244.5,180.833 244.5,186.167 244.5,191.5C 239.167,191.5 233.833,191.5 228.5,191.5C 228.5,180.833 228.5,170.167 228.5,159.5C 207.167,159.5 185.833,159.5 164.5,159.5C 164.5,154.167 164.5,148.833 164.5,143.5C 185.833,143.5 207.167,143.5 228.5,143.5C 228.5,138.167 228.5,132.833 228.5,127.5 Z"/></g>
<g><path style="opacity:1" fill="#000000" d="M 100.5,159.5 C 100.5,154.167 100.5,148.833 100.5,143.5C 111.167,143.5 121.833,143.5 132.5,143.5C 132.5,148.833 132.5,154.167 132.5,159.5C 121.833,159.5 111.167,159.5 100.5,159.5 Z"/></g>
<g><path style="opacity:1" fill="#000000" d="M 517.5,175.5 C 517.5,180.833 517.5,186.167 517.5,191.5C 506.833,191.5 496.167,191.5 485.5,191.5C 485.5,175.5 485.5,159.5 485.5,143.5C 490.833,143.5 496.167,143.5 501.5,143.5C 501.5,154.167 501.5,164.833 501.5,175.5C 506.833,175.5 512.167,175.5 517.5,175.5 Z"/></g>
<g><path style="opacity:1" fill="#000000" d="M 581.5,159.5 C 576.167,159.5 570.833,159.5 565.5,159.5C 565.5,154.167 565.5,148.833 565.5,143.5C 570.833,143.5 576.167,143.5 581.5,143.5C 581.5,148.833 581.5,154.167 581.5,159.5 Z"/></g>
<g><path style="opacity:1" fill="#000000" d="M 597.5,191.5 C 592.167,191.5 586.833,191.5 581.5,191.5C 581.5,180.833 581.5,170.167 581.5,159.5C 586.833,159.5 592.167,159.5 597.5,159.5C 597.5,154.167 597.5,148.833 597.5,143.5C 602.833,143.5 608.167,143.5 613.5,143.5C 613.5,154.167 613.5,164.833 613.5,175.5C 608.167,175.5 602.833,175.5 597.5,175.5C 597.5,180.833 597.5,186.167 597.5,191.5 Z"/></g>
<g><path style="opacity:1" fill="#000000" d="M 629.5,143.5 C 634.833,143.5 640.167,143.5 645.5,143.5C 645.5,148.833 645.5,154.167 645.5,159.5C 640.167,159.5 634.833,159.5 629.5,159.5C 629.5,154.167 629.5,148.833 629.5,143.5 Z"/></g>
<g><path style="opacity:1" fill="#000000" d="M 661.5,175.5 C 661.5,164.833 661.5,154.167 661.5,143.5C 666.833,143.5 672.167,143.5 677.5,143.5C 677.5,154.167 677.5,164.833 677.5,175.5C 672.167,175.5 666.833,175.5 661.5,175.5 Z"/></g>
<g><path style="opacity:1" fill="#000000" d="M 36.5,191.5 C 31.1667,191.5 25.8333,191.5 20.5,191.5C 20.5,180.833 20.5,170.167 20.5,159.5C 25.8333,159.5 31.1667,159.5 36.5,159.5C 36.5,170.167 36.5,180.833 36.5,191.5 Z"/></g>
<g><path style="opacity:1" fill="#000000" d="M 100.5,159.5 C 100.5,164.833 100.5,170.167 100.5,175.5C 89.8333,175.5 79.1667,175.5 68.5,175.5C 68.5,170.167 68.5,164.833 68.5,159.5C 79.1667,159.5 89.8333,159.5 100.5,159.5 Z"/></g>
<g><path style="opacity:1" fill="#000000" d="M 164.5,159.5 C 164.5,164.833 164.5,170.167 164.5,175.5C 159.167,175.5 153.833,175.5 148.5,175.5C 148.5,170.167 148.5,164.833 148.5,159.5C 153.833,159.5 159.167,159.5 164.5,159.5 Z"/></g>
<g><path style="opacity:1" fill="#fefefe" d="M 164.5,159.5 C 185.833,159.5 207.167,159.5 228.5,159.5C 228.5,170.167 228.5,180.833 228.5,191.5C 217.833,191.5 207.167,191.5 196.5,191.5C 196.5,196.833 196.5,202.167 196.5,207.5C 185.833,207.5 175.167,207.5 164.5,207.5C 164.5,202.167 164.5,196.833 164.5,191.5C 169.833,191.5 175.167,191.5 180.5,191.5C 180.5,186.167 180.5,180.833 180.5,175.5C 175.167,175.5 169.833,175.5 164.5,175.5C 164.5,170.167 164.5,164.833 164.5,159.5 Z"/></g>
<g><path style="opacity:1" fill="#000000" d="M 533.5,159.5 C 533.5,164.833 533.5,170.167 533.5,175.5C 528.167,175.5 522.833,175.5 517.5,175.5C 517.5,170.167 517.5,164.833 517.5,159.5C 522.833,159.5 528.167,159.5 533.5,159.5 Z"/></g>
<g><path style="opacity:1" fill="#000000" d="M 68.5,175.5 C 68.5,180.833 68.5,186.167 68.5,191.5C 63.1667,191.5 57.8333,191.5 52.5,191.5C 52.5,186.167 52.5,180.833 52.5,175.5C 57.8333,175.5 63.1667,175.5 68.5,175.5 Z"/></g>
<g><path style="opacity:1" fill="#fefefe" d="M 68.5,175.5 C 79.1667,175.5 89.8333,175.5 100.5,175.5C 100.5,180.833 100.5,186.167 100.5,191.5C 116.5,191.5 132.5,191.5 148.5,191.5C 148.5,202.167 148.5,212.833 148.5,223.5C 153.833,223.5 159.167,223.5 164.5,223.5C 164.5,234.167 164.5,244.833 164.5,255.5C 159.167,255.5 153.833,255.5 148.5,255.5C 148.5,250.167 148.5,244.833 148.5,239.5C 137.833,239.5 127.167,239.5 116.5,239.5C 116.5,244.833 116.5,250.167 116.5,255.5C 121.833,255.5 127.167,255.5 132.5,255.5C 132.5,260.833 132.5,266.167 132.5,271.5C 121.833,271.5 111.167,271.5 100.5,271.5C 100.5,276.833 100.5,282.167 100.5,287.5C 95.1667,287.5 89.8333,287.5 84.5,287.5C 84.5,276.833 84.5,266.167 84.5,255.5C 79.1667,255.5 73.8333,255.5 68.5,255.5C 68.5,250.167 68.5,244.833 68.5,239.5C 63.1667,239.5 57.8333,239.5 52.5,239.5C 52.5,223.5 52.5,207.5 52.5,191.5C 57.8333,191.5 63.1667,191.5 68.5,191.5C 68.5,186.167 68.5,180.833 68.5,175.5 Z"/></g>
<g><path style="opacity:1" fill="#000000" d="M 100.5,175.5 C 116.5,175.5 132.5,175.5 148.5,175.5C 148.5,180.833 148.5,186.167 148.5,191.5C 132.5,191.5 116.5,191.5 100.5,191.5C 100.5,186.167 100.5,180.833 100.5,175.5 Z"/></g>
<g><path style="opacity:1" fill="#fefefe" d="M 148.5,175.5 C 153.833,175.5 159.167,175.5 164.5,175.5C 164.5,180.833 164.5,186.167 164.5,191.5C 159.167,191.5 153.833,191.5 148.5,191.5C 148.5,186.167 148.5,180.833 148.5,175.5 Z"/></g>
<g><path style="opacity:1" fill="#000000" d="M 164.5,175.5 C 169.833,175.5 175.167,175.5 180.5,175.5C 180.5,180.833 180.5,186.167 180.5,191.5C 175.167,191.5 169.833,191.5 164.5,191.5C 164.5,186.167 164.5,180.833 164.5,175.5 Z"/></g>
<g><path style="opacity:1" fill="#fefefe" d="M 260.5,223.5 C 255.167,223.5 249.833,223.5 244.5,223.5C 244.5,218.167 244.5,212.833 244.5,207.5C 239.167,207.5 233.833,207.5 228.5,207.5C 228.5,202.167 228.5,196.833 228.5,191.5C 233.833,191.5 239.167,191.5 244.5,191.5C 244.5,186.167 244.5,180.833 244.5,175.5C 249.833,175.5 255.167,175.5 260.5,175.5C 260.5,191.5 260.5,207.5 260.5,223.5 Z"/></g>
<g><path style="opacity:1" fill="#fefefe" d="M 421.5,223.5 C 421.5,234.167 421.5,244.833 421.5,255.5C 410.833,255.5 400.167,255.5 389.5,255.5C 389.5,250.167 389.5,244.833 389.5,239.5C 373.167,239.5 356.833,239.5 340.5,239.5C 340.5,244.833 340.5,250.167 340.5,255.5C 335.167,255.5 329.833,255.5 324.5,255.5C 324.5,244.833 324.5,234.167 324.5,223.5C 319.167,223.5 313.833,223.5 308.5,223.5C 308.5,218.167 308.5,212.833 308.5,207.5C 313.833,207.5 319.167,207.5 324.5,207.5C 324.5,202.167 324.5,196.833 324.5,191.5C 329.833,191.5 335.167,191.5 340.5,191.5C 340.5,186.167 340.5,180.833 340.5,175.5C 346.167,175.5 351.833,175.5 357.5,175.5C 357.5,180.833 357.5,186.167 357.5,191.5C 362.833,191.5 368.167,191.5 373.5,191.5C 373.5,202.167 373.5,212.833 373.5,223.5C 389.5,223.5 405.5,223.5 421.5,223.5 Z"/></g>
<g><path style="opacity:1" fill="#fefffe" d="M 517.5,175.5 C 522.833,175.5 528.167,175.5 533.5,175.5C 533.5,180.833 533.5,186.167 533.5,191.5C 528.167,191.5 522.833,191.5 517.5,191.5C 517.5,186.167 517.5,180.833 517.5,175.5 Z"/></g>
<g><path style="opacity:1" fill="#000000" d="M 533.5,175.5 C 544.167,175.5 554.833,175.5 565.5,175.5C 565.5,186.167 565.5,196.833 565.5,207.5C 576.167,207.5 586.833,207.5 597.5,207.5C 597.5,212.833 597.5,218.167 597.5,223.5C 602.833,223.5 608.167,223.5 613.5,223.5C 613.5,228.833 613.5,234.167 613.5,239.5C 618.833,239.5 624.167,239.5 629.5,239.5C 629.5,244.833 629.5,250.167 629.5,255.5C 645.5,255.5 661.5,255.5 677.5,255.5C 677.5,260.833 677.5,266.167 677.5,271.5C 672.167,271.5 666.833,271.5 661.5,271.5C 661.5,276.833 661.5,282.167 661.5,287.5C 656.167,287.5 650.833,287.5 645.5,287.5C 645.5,298.167 645.5,308.833 645.5,319.5C 640.167,319.5 634.833,319.5 629.5,319.5C 629.5,324.833 629.5,330.167 629.5,335.5C 624.167,335.5 618.833,335.5 613.5,335.5C 613.5,341.167 613.5,346.833 613.5,352.5C 608.167,352.5 602.833,352.5 597.5,352.5C 597.5,341.5 597.5,330.5 597.5,319.5C 592.167,319.5 586.833,319.5 581.5,319.5C 581.5,324.833 581.5,330.167 581.5,335.5C 565.5,335.5 549.5,335.5 533.5,335.5C 533.5,330.167 533.5,324.833 533.5,319.5C 528.167,319.5 522.833,319.5 517.5,319.5C 517.5,314.167 517.5,308.833 517.5,303.5C 506.833,303.5 496.167,303.5 485.5,303.5C 485.5,308.833 485.5,314.167 485.5,319.5C 480.167,319.5 474.833,319.5 469.5,319.5C 469.5,324.833 469.5,330.167 469.5,335.5C 474.833,335.5 480.167,335.5 485.5,335.5C 485.5,346.5 485.5,357.5 485.5,368.5C 490.833,368.5 496.167,368.5 501.5,368.5C 501.5,363.167 501.5,357.833 501.5,352.5C 512.167,352.5 522.833,352.5 533.5,352.5C 533.5,357.833 533.5,363.167 533.5,368.5C 549.5,368.5 565.5,368.5 581.5,368.5C 581.5,373.833 581.5,379.167 581.5,384.5C 576.167,384.5 570.833,384.5 565.5,384.5C 565.5,389.833 565.5,395.167 565.5,400.5C 560.167,400.5 554.833,400.5 549.5,400.5C 549.5,405.833 549.5,411.167 549.5,416.5C 544.167,416.5 538.833,416.5 533.5,416.5C 533.5,421.833 533.5,427.167 533.5,432.5C 528.167,432.5 522.833,432.5 517.5,432.5C 517.5,437.833 517.5,443.167 517.5,448.5C 522.833,448.5 528.167,448.5 533.5,448.5C 533.5,453.833 533.5,459.167 533.5,464.5C 538.833,464.5 544.167,464.5 549.5,464.5C 549.5,469.833 549.5,475.167 549.5,480.5C 533.5,480.5 517.5,480.5 501.5,480.5C 501.5,485.833 501.5,491.167 501.5,496.5C 512.167,496.5 522.833,496.5 533.5,496.5C 533.5,501.833 533.5,507.167 533.5,512.5C 517.5,512.5 501.5,512.5 485.5,512.5C 485.5,517.833 485.5,523.167 485.5,528.5C 496.167,528.5 506.833,528.5 517.5,528.5C 517.5,533.833 517.5,539.167 517.5,544.5C 501.5,544.5 485.5,544.5 469.5,544.5C 469.5,549.833 469.5,555.167 469.5,560.5C 474.833,560.5 480.167,560.5 485.5,560.5C 485.5,571.167 485.5,581.833 485.5,592.5C 480.167,592.5 474.833,592.5 469.5,592.5C 469.5,587.167 469.5,581.833 469.5,576.5C 464.167,576.5 458.833,576.5 453.5,576.5C 453.5,571.167 453.5,565.833 453.5,560.5C 448.167,560.5 442.833,560.5 437.5,560.5C 437.5,565.833 437.5,571.167 437.5,576.5C 432.167,576.5 426.833,576.5 421.5,576.5C 421.5,587.167 421.5,597.833 421.5,608.5C 410.833,608.5 400.167,608.5 389.5,608.5C 389.5,597.833 389.5,587.167 389.5,576.5C 394.833,576.5 400.167,576.5 405.5,576.5C 405.5,555.167 405.5,533.833 405.5,512.5C 410.833,512.5 416.167,512.5 421.5,512.5C 421.5,523.167 421.5,533.833 421.5,544.5C 426.833,544.5 432.167,544.5 437.5,544.5C 437.5,533.833 437.5,523.167 437.5,512.5C 448.167,512.5 458.833,512.5 469.5,512.5C 469.5,501.833 469.5,491.167 469.5,480.5C 474.833,480.5 480.167,480.5 485.5,480.5C 485.5,475.167 485.5,469.833 485.5,464.5C 480.167,464.5 474.833,464.5 469.5,464.5C 469.5,459.167 469.5,453.833 469.5,448.5C 464.167,448.5 458.833,448.5 453.5,448.5C 453.5,443.167 453.5,437.833 453.5,432.5C 448.167,432.5 442.833,432.5 437.5,432.5C 437.5,427.167 437.5,421.833 437.5,416.5C 442.833,416.5 448.167,416.5 453.5,416.5C 453.5,411.167 453.5,405.833 453.5,400.5C 435.164,400.667 416.83,400.5 398.5,400C 402.039,398.093 404.539,395.26 406,391.5C 406.5,383.841 406.666,376.174 406.5,368.5C 411.5,368.5 416.5,368.5 421.5,368.5C 421.5,363.167 421.5,357.833 421.5,352.5C 416.5,352.5 411.5,352.5 406.5,352.5C 406.5,336.167 406.5,319.833 406.5,303.5C 411.5,303.5 416.5,303.5 421.5,303.5C 421.5,314.167 421.5,324.833 421.5,335.5C 432.167,335.5 442.833,335.5 453.5,335.5C 453.5,319.5 453.5,303.5 453.5,287.5C 442.833,287.5 432.167,287.5 421.5,287.5C 421.5,282.167 421.5,276.833 421.5,271.5C 405.5,271.5 389.5,271.5 373.5,271.5C 373.5,266.167 373.5,260.833 373.5,255.5C 368.167,255.5 362.833,255.5 357.5,255.5C 357.5,260.833 357.5,266.167 357.5,271.5C 351.833,271.5 346.167,271.5 340.5,271.5C 340.5,276.5 340.5,281.5 340.5,286.5C 335.167,286.5 329.833,286.5 324.5,286.5C 324.5,276.167 324.5,265.833 324.5,255.5C 329.833,255.5 335.167,255.5 340.5,255.5C 340.5,250.167 340.5,244.833 340.5,239.5C 356.833,239.5 373.167,239.5 389.5,239.5C 389.5,244.833 389.5,250.167 389.5,255.5C 400.167,255.5 410.833,255.5 421.5,255.5C 421.5,244.833 421.5,234.167 421.5,223.5C 426.833,223.5 432.167,223.5 437.5,223.5C 437.5,212.833 437.5,202.167 437.5,191.5C 442.833,191.5 448.167,191.5 453.5,191.5C 453.5,207.5 453.5,223.5 453.5,239.5C 464.167,239.5 474.833,239.5 485.5,239.5C 485.5,250.167 485.5,260.833 485.5,271.5C 490.833,271.5 496.167,271.5 501.5,271.5C 501.5,266.167 501.5,260.833 501.5,255.5C 506.833,255.5 512.167,255.5 517.5,255.5C 517.5,250.167 517.5,244.833 517.5,239.5C 522.833,239.5 528.167,239.5 533.5,239.5C 533.5,228.833 533.5,218.167 533.5,207.5C 528.167,207.5 522.833,207.5 517.5,207.5C 517.5,202.167 517.5,196.833 517.5,191.5C 522.833,191.5 528.167,191.5 533.5,191.5C 533.5,186.167 533.5,180.833 533.5,175.5 Z"/></g>
<g><path style="opacity:1" fill="#000000" d="M 661.5,175.5 C 661.5,180.833 661.5,186.167 661.5,191.5C 656.167,191.5 650.833,191.5 645.5,191.5C 645.5,186.167 645.5,180.833 645.5,175.5C 650.833,175.5 656.167,175.5 661.5,175.5 Z"/></g>
<g><path style="opacity:1" fill="#000000" d="M 36.5,191.5 C 41.8333,191.5 47.1667,191.5 52.5,191.5C 52.5,207.5 52.5,223.5 52.5,239.5C 57.8333,239.5 63.1667,239.5 68.5,239.5C 68.5,244.833 68.5,250.167 68.5,255.5C 57.8333,255.5 47.1667,255.5 36.5,255.5C 36.5,234.167 36.5,212.833 36.5,191.5 Z"/></g>
<g><path style="opacity:1" fill="#000000" d="M 148.5,191.5 C 153.833,191.5 159.167,191.5 164.5,191.5C 164.5,196.833 164.5,202.167 164.5,207.5C 175.167,207.5 185.833,207.5 196.5,207.5C 196.5,202.167 196.5,196.833 196.5,191.5C 207.167,191.5 217.833,191.5 228.5,191.5C 228.5,196.833 228.5,202.167 228.5,207.5C 233.833,207.5 239.167,207.5 244.5,207.5C 244.5,212.833 244.5,218.167 244.5,223.5C 239.167,223.5 233.833,223.5 228.5,223.5C 228.5,228.833 228.5,234.167 228.5,239.5C 223.167,239.5 217.833,239.5 212.5,239.5C 212.5,244.833 212.5,250.167 212.5,255.5C 207.167,255.5 201.833,255.5 196.5,255.5C 196.5,260.833 196.5,266.167 196.5,271.5C 191.167,271.5 185.833,271.5 180.5,271.5C 180.5,266.167 180.5,260.833 180.5,255.5C 175.167,255.5 169.833,255.5 164.5,255.5C 164.5,244.833 164.5,234.167 164.5,223.5C 159.167,223.5 153.833,223.5 148.5,223.5C 148.5,212.833 148.5,202.167 148.5,191.5 Z"/></g>
<g><path style="opacity:1" fill="#fefffe" d="M 453.5,191.5 C 458.833,191.5 464.167,191.5 469.5,191.5C 469.5,196.833 469.5,202.167 469.5,207.5C 474.833,207.5 480.167,207.5 485.5,207.5C 485.5,202.167 485.5,196.833 485.5,191.5C 496.167,191.5 506.833,191.5 517.5,191.5C 517.5,196.833 517.5,202.167 517.5,207.5C 522.833,207.5 528.167,207.5 533.5,207.5C 533.5,218.167 533.5,228.833 533.5,239.5C 528.167,239.5 522.833,239.5 517.5,239.5C 517.5,244.833 517.5,250.167 517.5,255.5C 512.167,255.5 506.833,255.5 501.5,255.5C 501.5,260.833 501.5,266.167 501.5,271.5C 496.167,271.5 490.833,271.5 485.5,271.5C 485.5,260.833 485.5,250.167 485.5,239.5C 474.833,239.5 464.167,239.5 453.5,239.5C 453.5,223.5 453.5,207.5 453.5,191.5 Z"/></g>
<g><path style="opacity:1" fill="#000000" d="M 469.5,191.5 C 474.833,191.5 480.167,191.5 485.5,191.5C 485.5,196.833 485.5,202.167 485.5,207.5C 480.167,207.5 474.833,207.5 469.5,207.5C 469.5,202.167 469.5,196.833 469.5,191.5 Z"/></g>
<g><path style="opacity:1" fill="#000000" d="M 597.5,191.5 C 608.167,191.5 618.833,191.5 629.5,191.5C 629.5,196.833 629.5,202.167 629.5,207.5C 618.833,207.5 608.167,207.5 597.5,207.5C 597.5,202.167 597.5,196.833 597.5,191.5 Z"/></g>
<g><path style="opacity:1" fill="#000000" d="M 661.5,191.5 C 666.833,191.5 672.167,191.5 677.5,191.5C 677.5,207.5 677.5,223.5 677.5,239.5C 672.167,239.5 666.833,239.5 661.5,239.5C 661.5,223.5 661.5,207.5 661.5,191.5 Z"/></g>
<g><path style="opacity:1" fill="#000000" d="M 84.5,207.5 C 100.5,207.5 116.5,207.5 132.5,207.5C 132.5,212.833 132.5,218.167 132.5,223.5C 121.833,223.5 111.167,223.5 100.5,223.5C 100.5,228.833 100.5,234.167 100.5,239.5C 95.1667,239.5 89.8333,239.5 84.5,239.5C 84.5,228.833 84.5,218.167 84.5,207.5 Z"/></g>
<g><path style="opacity:1" fill="#fefefe" d="M 292.5,207.5 C 292.5,212.833 292.5,218.167 292.5,223.5C 287.167,223.5 281.833,223.5 276.5,223.5C 276.5,218.167 276.5,212.833 276.5,207.5C 281.833,207.5 287.167,207.5 292.5,207.5 Z"/></g>
<g><path style="opacity:1" fill="#000000" d="M 292.5,207.5 C 297.833,207.5 303.167,207.5 308.5,207.5C 308.5,212.833 308.5,218.167 308.5,223.5C 313.833,223.5 319.167,223.5 324.5,223.5C 324.5,234.167 324.5,244.833 324.5,255.5C 319.167,255.5 313.833,255.5 308.5,255.5C 308.5,265.833 308.5,276.167 308.5,286.5C 296.962,286.371 291.629,292.037 292.5,303.5C 287.167,303.5 281.833,303.5 276.5,303.5C 276.5,298.167 276.5,292.833 276.5,287.5C 271.167,287.5 265.833,287.5 260.5,287.5C 260.5,271.5 260.5,255.5 260.5,239.5C 265.833,239.5 271.167,239.5 276.5,239.5C 276.5,234.167 276.5,228.833 276.5,223.5C 281.833,223.5 287.167,223.5 292.5,223.5C 292.5,218.167 292.5,212.833 292.5,207.5 Z"/></g>
<g><path style="opacity:1" fill="#fefffe" d="M 180.5,223.5 C 185.833,223.5 191.167,223.5 196.5,223.5C 196.5,228.833 196.5,234.167 196.5,239.5C 191.167,239.5 185.833,239.5 180.5,239.5C 180.5,234.167 180.5,228.833 180.5,223.5 Z"/></g>
<g><path style="opacity:1" fill="#fefefe" d="M 244.5,223.5 C 244.5,228.833 244.5,234.167 244.5,239.5C 239.167,239.5 233.833,239.5 228.5,239.5C 228.5,234.167 228.5,228.833 228.5,223.5C 233.833,223.5 239.167,223.5 244.5,223.5 Z"/></g>
<g><path style="opacity:1" fill="#000000" d="M 244.5,223.5 C 249.833,223.5 255.167,223.5 260.5,223.5C 260.5,228.833 260.5,234.167 260.5,239.5C 255.167,239.5 249.833,239.5 244.5,239.5C 244.5,234.167 244.5,228.833 244.5,223.5 Z"/></g>
<g><path style="opacity:1" fill="#fefefe" d="M 260.5,223.5 C 265.833,223.5 271.167,223.5 276.5,223.5C 276.5,228.833 276.5,234.167 276.5,239.5C 271.167,239.5 265.833,239.5 260.5,239.5C 260.5,234.167 260.5,228.833 260.5,223.5 Z"/></g>
<g><path style="opacity:1" fill="#fefffe" d="M 597.5,255.5 C 597.5,260.833 597.5,266.167 597.5,271.5C 592.167,271.5 586.833,271.5 581.5,271.5C 581.5,276.833 581.5,282.167 581.5,287.5C 576.167,287.5 570.833,287.5 565.5,287.5C 565.5,266.167 565.5,244.833 565.5,223.5C 570.833,223.5 576.167,223.5 581.5,223.5C 581.5,234.167 581.5,244.833 581.5,255.5C 586.833,255.5 592.167,255.5 597.5,255.5 Z"/></g>
<g><path style="opacity:1" fill="#000000" d="M 164.5,255.5 C 164.5,260.833 164.5,266.167 164.5,271.5C 153.833,271.5 143.167,271.5 132.5,271.5C 132.5,266.167 132.5,260.833 132.5,255.5C 127.167,255.5 121.833,255.5 116.5,255.5C 116.5,250.167 116.5,244.833 116.5,239.5C 127.167,239.5 137.833,239.5 148.5,239.5C 148.5,244.833 148.5,250.167 148.5,255.5C 153.833,255.5 159.167,255.5 164.5,255.5 Z"/></g>
<g><path style="opacity:1" fill="#fefefe" d="M 228.5,239.5 C 228.5,250.167 228.5,260.833 228.5,271.5C 217.833,271.5 207.167,271.5 196.5,271.5C 196.5,266.167 196.5,260.833 196.5,255.5C 201.833,255.5 207.167,255.5 212.5,255.5C 212.5,250.167 212.5,244.833 212.5,239.5C 217.833,239.5 223.167,239.5 228.5,239.5 Z"/></g>
<g><path style="opacity:1" fill="#000000" d="M 228.5,239.5 C 233.833,239.5 239.167,239.5 244.5,239.5C 244.5,250.167 244.5,260.833 244.5,271.5C 239.167,271.5 233.833,271.5 228.5,271.5C 228.5,260.833 228.5,250.167 228.5,239.5 Z"/></g>
<g><path style="opacity:1" fill="#fefefe" d="M 244.5,239.5 C 249.833,239.5 255.167,239.5 260.5,239.5C 260.5,255.5 260.5,271.5 260.5,287.5C 249.833,287.5 239.167,287.5 228.5,287.5C 228.5,282.167 228.5,276.833 228.5,271.5C 233.833,271.5 239.167,271.5 244.5,271.5C 244.5,260.833 244.5,250.167 244.5,239.5 Z"/></g>
<g><path style="opacity:1" fill="#fefefe" d="M 308.5,255.5 C 303.167,255.5 297.833,255.5 292.5,255.5C 292.5,250.167 292.5,244.833 292.5,239.5C 297.833,239.5 303.167,239.5 308.5,239.5C 308.5,244.833 308.5,250.167 308.5,255.5 Z"/></g>
<g><path style="opacity:1" fill="#fefffe" d="M 453.5,239.5 C 453.5,244.833 453.5,250.167 453.5,255.5C 448.167,255.5 442.833,255.5 437.5,255.5C 437.5,250.167 437.5,244.833 437.5,239.5C 442.833,239.5 448.167,239.5 453.5,239.5 Z"/></g>
<g><path style="opacity:1" fill="#fefffe" d="M 533.5,239.5 C 538.833,239.5 544.167,239.5 549.5,239.5C 549.5,255.5 549.5,271.5 549.5,287.5C 544.167,287.5 538.833,287.5 533.5,287.5C 533.5,271.5 533.5,255.5 533.5,239.5 Z"/></g>
<g><path style="opacity:1" fill="#fefffe" d="M 613.5,239.5 C 613.5,244.833 613.5,250.167 613.5,255.5C 608.167,255.5 602.833,255.5 597.5,255.5C 597.5,250.167 597.5,244.833 597.5,239.5C 602.833,239.5 608.167,239.5 613.5,239.5 Z"/></g>
<g><path style="opacity:1" fill="#000000" d="M 36.5,255.5 C 36.5,260.833 36.5,266.167 36.5,271.5C 31.1667,271.5 25.8333,271.5 20.5,271.5C 20.5,266.167 20.5,260.833 20.5,255.5C 25.8333,255.5 31.1667,255.5 36.5,255.5 Z"/></g>
<g><path style="opacity:1" fill="#fefefe" d="M 36.5,255.5 C 47.1667,255.5 57.8333,255.5 68.5,255.5C 68.5,260.833 68.5,266.167 68.5,271.5C 57.8333,271.5 47.1667,271.5 36.5,271.5C 36.5,266.167 36.5,260.833 36.5,255.5 Z"/></g>
<g><path style="opacity:1" fill="#000000" d="M 68.5,255.5 C 73.8333,255.5 79.1667,255.5 84.5,255.5C 84.5,266.167 84.5,276.833 84.5,287.5C 89.8333,287.5 95.1667,287.5 100.5,287.5C 100.5,298.167 100.5,308.833 100.5,319.5C 89.8333,319.5 79.1667,319.5 68.5,319.5C 68.5,324.833 68.5,330.167 68.5,335.5C 73.8333,335.5 79.1667,335.5 84.5,335.5C 84.5,341.167 84.5,346.833 84.5,352.5C 63.1667,352.5 41.8333,352.5 20.5,352.5C 20.5,346.833 20.5,341.167 20.5,335.5C 25.8333,335.5 31.1667,335.5 36.5,335.5C 36.5,314.167 36.5,292.833 36.5,271.5C 47.1667,271.5 57.8333,271.5 68.5,271.5C 68.5,266.167 68.5,260.833 68.5,255.5 Z"/></g>
<g><path style="opacity:1" fill="#fefefe" d="M 164.5,255.5 C 169.833,255.5 175.167,255.5 180.5,255.5C 180.5,260.833 180.5,266.167 180.5,271.5C 175.167,271.5 169.833,271.5 164.5,271.5C 164.5,266.167 164.5,260.833 164.5,255.5 Z"/></g>
<g><path style="opacity:1" fill="#fefffe" d="M 292.5,255.5 C 292.5,260.833 292.5,266.167 292.5,271.5C 287.167,271.5 281.833,271.5 276.5,271.5C 276.5,266.167 276.5,260.833 276.5,255.5C 281.833,255.5 287.167,255.5 292.5,255.5 Z"/></g>
<g><path style="opacity:1" fill="#fdfdfd" d="M 308.5,255.5 C 313.833,255.5 319.167,255.5 324.5,255.5C 324.5,265.833 324.5,276.167 324.5,286.5C 329.833,286.5 335.167,286.5 340.5,286.5C 340.5,281.5 340.5,276.5 340.5,271.5C 346.167,271.5 351.833,271.5 357.5,271.5C 357.5,266.167 357.5,260.833 357.5,255.5C 362.833,255.5 368.167,255.5 373.5,255.5C 373.5,260.833 373.5,266.167 373.5,271.5C 389.5,271.5 405.5,271.5 421.5,271.5C 421.5,276.833 421.5,282.167 421.5,287.5C 432.167,287.5 442.833,287.5 453.5,287.5C 453.5,303.5 453.5,319.5 453.5,335.5C 442.833,335.5 432.167,335.5 421.5,335.5C 421.5,324.833 421.5,314.167 421.5,303.5C 416.5,303.5 411.5,303.5 406.5,303.5C 406.5,319.833 406.5,336.167 406.5,352.5C 411.5,352.5 416.5,352.5 421.5,352.5C 421.5,357.833 421.5,363.167 421.5,368.5C 416.5,368.5 411.5,368.5 406.5,368.5C 406.666,376.174 406.5,383.841 406,391.5C 404.539,395.26 402.039,398.093 398.5,400C 416.83,400.5 435.164,400.667 453.5,400.5C 453.5,405.833 453.5,411.167 453.5,416.5C 448.167,416.5 442.833,416.5 437.5,416.5C 437.5,421.833 437.5,427.167 437.5,432.5C 442.833,432.5 448.167,432.5 453.5,432.5C 453.5,437.833 453.5,443.167 453.5,448.5C 458.833,448.5 464.167,448.5 469.5,448.5C 469.5,453.833 469.5,459.167 469.5,464.5C 464.167,464.5 458.833,464.5 453.5,464.5C 453.5,469.833 453.5,475.167 453.5,480.5C 458.833,480.5 464.167,480.5 469.5,480.5C 469.5,491.167 469.5,501.833 469.5,512.5C 458.833,512.5 448.167,512.5 437.5,512.5C 437.5,523.167 437.5,533.833 437.5,544.5C 432.167,544.5 426.833,544.5 421.5,544.5C 421.5,533.833 421.5,523.167 421.5,512.5C 416.167,512.5 410.833,512.5 405.5,512.5C 405.5,507.167 405.5,501.833 405.5,496.5C 416.167,496.5 426.833,496.5 437.5,496.5C 437.5,491.167 437.5,485.833 437.5,480.5C 432.167,480.5 426.833,480.5 421.5,480.5C 421.5,475.167 421.5,469.833 421.5,464.5C 416.167,464.5 410.833,464.5 405.5,464.5C 405.5,459.167 405.5,453.833 405.5,448.5C 410.833,448.5 416.167,448.5 421.5,448.5C 421.5,437.833 421.5,427.167 421.5,416.5C 410.833,416.5 400.167,416.5 389.5,416.5C 389.5,411.5 389.5,406.5 389.5,401.5C 373.167,401.5 356.833,401.5 340.5,401.5C 340.5,406.5 340.5,411.5 340.5,416.5C 335.167,416.5 329.833,416.5 324.5,416.5C 324.5,411.5 324.5,406.5 324.5,401.5C 319.167,401.5 313.833,401.5 308.5,401.5C 308.5,417.167 308.5,432.833 308.5,448.5C 313.833,448.5 319.167,448.5 324.5,448.5C 324.5,464.5 324.5,480.5 324.5,496.5C 313.833,496.5 303.167,496.5 292.5,496.5C 292.5,491.167 292.5,485.833 292.5,480.5C 287.167,480.5 281.833,480.5 276.5,480.5C 276.5,475.167 276.5,469.833 276.5,464.5C 271.167,464.5 265.833,464.5 260.5,464.5C 260.5,448.5 260.5,432.5 260.5,416.5C 255.167,416.5 249.833,416.5 244.5,416.5C 244.5,427.167 244.5,437.833 244.5,448.5C 239.167,448.5 233.833,448.5 228.5,448.5C 228.5,453.833 228.5,459.167 228.5,464.5C 223.167,464.5 217.833,464.5 212.5,464.5C 212.5,469.833 212.5,475.167 212.5,480.5C 217.833,480.5 223.167,480.5 228.5,480.5C 228.5,491.167 228.5,501.833 228.5,512.5C 207.167,512.5 185.833,512.5 164.5,512.5C 164.5,523.167 164.5,533.833 164.5,544.5C 159.167,544.5 153.833,544.5 148.5,544.5C 148.5,528.5 148.5,512.5 148.5,496.5C 153.833,496.5 159.167,496.5 164.5,496.5C 164.5,485.833 164.5,475.167 164.5,464.5C 148.5,464.5 132.5,464.5 116.5,464.5C 116.5,469.833 116.5,475.167 116.5,480.5C 121.833,480.5 127.167,480.5 132.5,480.5C 132.5,485.833 132.5,491.167 132.5,496.5C 127.167,496.5 121.833,496.5 116.5,496.5C 116.5,501.833 116.5,507.167 116.5,512.5C 105.833,512.5 95.1667,512.5 84.5,512.5C 84.5,507.167 84.5,501.833 84.5,496.5C 89.8333,496.5 95.1667,496.5 100.5,496.5C 100.5,485.833 100.5,475.167 100.5,464.5C 89.8333,464.5 79.1667,464.5 68.5,464.5C 68.5,459.167 68.5,453.833 68.5,448.5C 73.8333,448.5 79.1667,448.5 84.5,448.5C 84.5,427.167 84.5,405.833 84.5,384.5C 89.8333,384.5 95.1667,384.5 100.5,384.5C 100.5,405.833 100.5,427.167 100.5,448.5C 127.167,448.5 153.833,448.5 180.5,448.5C 180.5,443.167 180.5,437.833 180.5,432.5C 191.167,432.5 201.833,432.5 212.5,432.5C 212.5,427.167 212.5,421.833 212.5,416.5C 217.833,416.5 223.167,416.5 228.5,416.5C 228.5,411.167 228.5,405.833 228.5,400.5C 233.833,400.5 239.167,400.5 244.5,400.5C 244.5,384.5 244.5,368.5 244.5,352.5C 260.167,352.5 275.833,352.5 291.5,352.5C 291.5,341.5 291.5,330.5 291.5,319.5C 286.5,319.5 281.5,319.5 276.5,319.5C 276.5,314.167 276.5,308.833 276.5,303.5C 281.833,303.5 287.167,303.5 292.5,303.5C 291.629,292.037 296.962,286.371 308.5,286.5C 308.5,276.167 308.5,265.833 308.5,255.5 Z"/></g>
<g><path style="opacity:1" fill="#fefffe" d="M 453.5,255.5 C 458.833,255.5 464.167,255.5 469.5,255.5C 469.5,260.833 469.5,266.167 469.5,271.5C 464.167,271.5 458.833,271.5 453.5,271.5C 453.5,266.167 453.5,260.833 453.5,255.5 Z"/></g>
<g><path style="opacity:1" fill="#000000" d="M 132.5,271.5 C 132.5,276.833 132.5,282.167 132.5,287.5C 121.833,287.5 111.167,287.5 100.5,287.5C 100.5,282.167 100.5,276.833 100.5,271.5C 111.167,271.5 121.833,271.5 132.5,271.5 Z"/></g>
<g><path style="opacity:1" fill="#000000" d="M 164.5,271.5 C 169.833,271.5 175.167,271.5 180.5,271.5C 180.5,276.833 180.5,282.167 180.5,287.5C 185.833,287.5 191.167,287.5 196.5,287.5C 196.5,282.167 196.5,276.833 196.5,271.5C 207.167,271.5 217.833,271.5 228.5,271.5C 228.5,276.833 228.5,282.167 228.5,287.5C 223.167,287.5 217.833,287.5 212.5,287.5C 212.5,298.167 212.5,308.833 212.5,319.5C 217.833,319.5 223.167,319.5 228.5,319.5C 228.5,324.833 228.5,330.167 228.5,335.5C 244.5,335.5 260.5,335.5 276.5,335.5C 276.5,330.167 276.5,324.833 276.5,319.5C 281.5,319.5 286.5,319.5 291.5,319.5C 291.5,330.5 291.5,341.5 291.5,352.5C 275.833,352.5 260.167,352.5 244.5,352.5C 244.5,368.5 244.5,384.5 244.5,400.5C 239.167,400.5 233.833,400.5 228.5,400.5C 228.5,389.833 228.5,379.167 228.5,368.5C 223.167,368.5 217.833,368.5 212.5,368.5C 212.5,357.5 212.5,346.5 212.5,335.5C 201.833,335.5 191.167,335.5 180.5,335.5C 180.5,341.167 180.5,346.833 180.5,352.5C 175.167,352.5 169.833,352.5 164.5,352.5C 164.5,346.833 164.5,341.167 164.5,335.5C 159.167,335.5 153.833,335.5 148.5,335.5C 148.5,346.5 148.5,357.5 148.5,368.5C 143.167,368.5 137.833,368.5 132.5,368.5C 132.5,363.167 132.5,357.833 132.5,352.5C 127.167,352.5 121.833,352.5 116.5,352.5C 116.5,357.833 116.5,363.167 116.5,368.5C 111.167,368.5 105.833,368.5 100.5,368.5C 100.5,357.5 100.5,346.5 100.5,335.5C 111.167,335.5 121.833,335.5 132.5,335.5C 132.5,330.167 132.5,324.833 132.5,319.5C 127.167,319.5 121.833,319.5 116.5,319.5C 116.5,314.167 116.5,308.833 116.5,303.5C 132.5,303.5 148.5,303.5 164.5,303.5C 164.5,292.833 164.5,282.167 164.5,271.5 Z"/></g>
<g><path style="opacity:1" fill="#fefefe" d="M 180.5,271.5 C 185.833,271.5 191.167,271.5 196.5,271.5C 196.5,276.833 196.5,282.167 196.5,287.5C 191.167,287.5 185.833,287.5 180.5,287.5C 180.5,282.167 180.5,276.833 180.5,271.5 Z"/></g>
<g><path style="opacity:1" fill="#fefffe" d="M 501.5,271.5 C 506.833,271.5 512.167,271.5 517.5,271.5C 517.5,276.833 517.5,282.167 517.5,287.5C 512.167,287.5 506.833,287.5 501.5,287.5C 501.5,282.167 501.5,276.833 501.5,271.5 Z"/></g>
<g><path style="opacity:1" fill="#fefffe" d="M 597.5,271.5 C 602.833,271.5 608.167,271.5 613.5,271.5C 613.5,276.833 613.5,282.167 613.5,287.5C 613.5,282.167 613.5,276.833 613.5,271.5C 608.167,271.5 602.833,271.5 597.5,271.5 Z"/></g>
<g><path style="opacity:1" fill="#fefffe" d="M 52.5,287.5 C 57.8333,287.5 63.1667,287.5 68.5,287.5C 68.5,292.833 68.5,298.167 68.5,303.5C 63.1667,303.5 57.8333,303.5 52.5,303.5C 52.5,298.167 52.5,292.833 52.5,287.5 Z"/></g>
<g><path style="opacity:1" fill="#fefefe" d="M 228.5,287.5 C 228.5,292.833 228.5,298.167 228.5,303.5C 239.167,303.5 249.833,303.5 260.5,303.5C 260.5,308.833 260.5,314.167 260.5,319.5C 265.833,319.5 271.167,319.5 276.5,319.5C 276.5,324.833 276.5,330.167 276.5,335.5C 260.5,335.5 244.5,335.5 228.5,335.5C 228.5,330.167 228.5,324.833 228.5,319.5C 223.167,319.5 217.833,319.5 212.5,319.5C 212.5,308.833 212.5,298.167 212.5,287.5C 217.833,287.5 223.167,287.5 228.5,287.5 Z"/></g>
<g><path style="opacity:1" fill="#000000" d="M 228.5,287.5 C 239.167,287.5 249.833,287.5 260.5,287.5C 260.5,292.833 260.5,298.167 260.5,303.5C 249.833,303.5 239.167,303.5 228.5,303.5C 228.5,298.167 228.5,292.833 228.5,287.5 Z"/></g>
<g><path style="opacity:1" fill="#fefefe" d="M 260.5,287.5 C 265.833,287.5 271.167,287.5 276.5,287.5C 276.5,292.833 276.5,298.167 276.5,303.5C 271.167,303.5 265.833,303.5 260.5,303.5C 260.5,298.167 260.5,292.833 260.5,287.5 Z"/></g>
<g><path style="opacity:1" fill="#0e0e0e" d="M 398.5,288.5 C 400.607,287.532 402.941,287.198 405.5,287.5C 405.663,289.857 405.497,292.19 405,294.5C 403.594,291.591 401.428,289.591 398.5,288.5 Z"/></g>
<g><path style="opacity:1" fill="#fefffe" d="M 485.5,303.5 C 480.167,303.5 474.833,303.5 469.5,303.5C 469.5,298.167 469.5,292.833 469.5,287.5C 474.833,287.5 480.167,287.5 485.5,287.5C 485.5,292.833 485.5,298.167 485.5,303.5 Z"/></g>
<g><path style="opacity:1" fill="#fefffe" d="M 613.5,287.5 C 618.833,287.5 624.167,287.5 629.5,287.5C 629.5,292.833 629.5,298.167 629.5,303.5C 624.167,303.5 618.833,303.5 613.5,303.5C 613.5,298.167 613.5,292.833 613.5,287.5 Z"/></g>
<g><path style="opacity:1" fill="#000000" d="M 661.5,287.5 C 666.833,287.5 672.167,287.5 677.5,287.5C 677.5,298.167 677.5,308.833 677.5,319.5C 672.167,319.5 666.833,319.5 661.5,319.5C 661.5,308.833 661.5,298.167 661.5,287.5 Z"/></g>
<g><path style="opacity:1" fill="#eeeeee" d="M 305.5,290.5 C 334.502,290.333 363.502,290.5 392.5,291C 396.232,290.812 399.066,292.312 401,295.5C 402.652,327.414 402.985,359.414 402,391.5C 400.5,393 399,394.5 397.5,396C 366.919,397.651 336.253,397.984 305.5,397C 301.768,397.188 298.934,395.688 297,392.5C 295.363,360.881 295.03,329.214 296,297.5C 297.985,293.321 301.152,290.988 305.5,290.5 Z"/></g>
<g><path style="opacity:1" fill="#fefefe" d="M 164.5,303.5 C 169.833,303.5 175.167,303.5 180.5,303.5C 180.5,308.833 180.5,314.167 180.5,319.5C 175.167,319.5 169.833,319.5 164.5,319.5C 164.5,314.167 164.5,308.833 164.5,303.5 Z"/></g>
<g><path style="opacity:1" fill="#000000" d="M 260.5,303.5 C 265.833,303.5 271.167,303.5 276.5,303.5C 276.5,308.833 276.5,314.167 276.5,319.5C 271.167,319.5 265.833,319.5 260.5,319.5C 260.5,314.167 260.5,308.833 260.5,303.5 Z"/></g>
<g><path style="opacity:1" fill="#fefffe" d="M 485.5,303.5 C 496.167,303.5 506.833,303.5 517.5,303.5C 517.5,308.833 517.5,314.167 517.5,319.5C 506.833,319.5 496.167,319.5 485.5,319.5C 485.5,314.167 485.5,308.833 485.5,303.5 Z"/></g>
<g><path style="opacity:1" fill="#fefffe" d="M 581.5,319.5 C 570.833,319.5 560.167,319.5 549.5,319.5C 549.5,314.167 549.5,308.833 549.5,303.5C 560.167,303.5 570.833,303.5 581.5,303.5C 581.5,308.833 581.5,314.167 581.5,319.5 Z"/></g>
<g><path style="opacity:1" fill="#b6b6b6" d="M 341.5,308.5 C 359.328,306.828 367.162,314.828 365,332.5C 364.06,337.048 362.06,341.048 359,344.5C 357.708,348.627 358.875,351.794 362.5,354C 370.447,356.885 377.281,361.385 383,367.5C 383.667,370.833 383.667,374.167 383,377.5C 382.5,378 382,378.5 381.5,379C 359.5,379.667 337.5,379.667 315.5,379C 313.004,374.677 312.838,370.177 315,365.5C 322.325,360.002 329.992,355.002 338,350.5C 338.667,348.5 338.667,346.5 338,344.5C 333.102,339.195 330.936,332.862 331.5,325.5C 331.244,321.877 332.077,318.544 334,315.5C 336.396,312.933 338.896,310.6 341.5,308.5 Z"/></g>
<g><path style="opacity:1" fill="#fefffe" d="M 485.5,319.5 C 485.5,324.833 485.5,330.167 485.5,335.5C 480.167,335.5 474.833,335.5 469.5,335.5C 469.5,330.167 469.5,324.833 469.5,319.5C 474.833,319.5 480.167,319.5 485.5,319.5 Z"/></g>
<g><path style="opacity:1" fill="#000000" d="M 485.5,319.5 C 496.167,319.5 506.833,319.5 517.5,319.5C 517.5,324.833 517.5,330.167 517.5,335.5C 506.833,335.5 496.167,335.5 485.5,335.5C 485.5,330.167 485.5,324.833 485.5,319.5 Z"/></g>
<g><path style="opacity:1" fill="#fefefe" d="M 517.5,319.5 C 522.833,319.5 528.167,319.5 533.5,319.5C 533.5,324.833 533.5,330.167 533.5,335.5C 549.5,335.5 565.5,335.5 581.5,335.5C 581.5,330.167 581.5,324.833 581.5,319.5C 586.833,319.5 592.167,319.5 597.5,319.5C 597.5,330.5 597.5,341.5 597.5,352.5C 592.167,352.5 586.833,352.5 581.5,352.5C 581.5,357.833 581.5,363.167 581.5,368.5C 565.5,368.5 549.5,368.5 533.5,368.5C 533.5,363.167 533.5,357.833 533.5,352.5C 522.833,352.5 512.167,352.5 501.5,352.5C 501.5,357.833 501.5,363.167 501.5,368.5C 496.167,368.5 490.833,368.5 485.5,368.5C 485.5,357.5 485.5,346.5 485.5,335.5C 496.167,335.5 506.833,335.5 517.5,335.5C 517.5,330.167 517.5,324.833 517.5,319.5 Z"/></g>
<g><path style="opacity:1" fill="#fefefe" d="M 212.5,368.5 C 196.5,368.5 180.5,368.5 164.5,368.5C 164.5,384.5 164.5,400.5 164.5,416.5C 153.833,416.5 143.167,416.5 132.5,416.5C 132.5,411.167 132.5,405.833 132.5,400.5C 137.833,400.5 143.167,400.5 148.5,400.5C 148.5,395.167 148.5,389.833 148.5,384.5C 143.167,384.5 137.833,384.5 132.5,384.5C 132.5,379.167 132.5,373.833 132.5,368.5C 137.833,368.5 143.167,368.5 148.5,368.5C 148.5,357.5 148.5,346.5 148.5,335.5C 153.833,335.5 159.167,335.5 164.5,335.5C 164.5,341.167 164.5,346.833 164.5,352.5C 169.833,352.5 175.167,352.5 180.5,352.5C 180.5,346.833 180.5,341.167 180.5,335.5C 191.167,335.5 201.833,335.5 212.5,335.5C 212.5,346.5 212.5,357.5 212.5,368.5 Z"/></g>
<g><path style="opacity:1" fill="#fefffe" d="M 629.5,335.5 C 629.5,341.167 629.5,346.833 629.5,352.5C 624.167,352.5 618.833,352.5 613.5,352.5C 613.5,346.833 613.5,341.167 613.5,335.5C 618.833,335.5 624.167,335.5 629.5,335.5 Z"/></g>
<g><path style="opacity:1" fill="#000000" d="M 629.5,335.5 C 640.167,335.5 650.833,335.5 661.5,335.5C 661.5,341.167 661.5,346.833 661.5,352.5C 650.833,352.5 640.167,352.5 629.5,352.5C 629.5,346.833 629.5,341.167 629.5,335.5 Z"/></g>
<g><path style="opacity:1" fill="#fefefe" d="M 132.5,368.5 C 127.167,368.5 121.833,368.5 116.5,368.5C 116.5,363.167 116.5,357.833 116.5,352.5C 121.833,352.5 127.167,352.5 132.5,352.5C 132.5,357.833 132.5,363.167 132.5,368.5 Z"/></g>
<g><path style="opacity:1" fill="#fefefe" d="M 437.5,368.5 C 437.5,363.167 437.5,357.833 437.5,352.5C 442.833,352.5 448.167,352.5 453.5,352.5C 453.5,357.833 453.5,363.167 453.5,368.5C 448.167,368.5 442.833,368.5 437.5,368.5 Z"/></g>
<g><path style="opacity:1" fill="#000000" d="M 597.5,352.5 C 597.5,357.833 597.5,363.167 597.5,368.5C 592.167,368.5 586.833,368.5 581.5,368.5C 581.5,363.167 581.5,357.833 581.5,352.5C 586.833,352.5 592.167,352.5 597.5,352.5 Z"/></g>
<g><path style="opacity:1" fill="#fefefe" d="M 597.5,352.5 C 602.833,352.5 608.167,352.5 613.5,352.5C 613.5,357.833 613.5,363.167 613.5,368.5C 618.833,368.5 624.167,368.5 629.5,368.5C 629.5,373.833 629.5,379.167 629.5,384.5C 624.167,384.5 618.833,384.5 613.5,384.5C 613.5,395.167 613.5,405.833 613.5,416.5C 602.833,416.5 592.167,416.5 581.5,416.5C 581.5,411.167 581.5,405.833 581.5,400.5C 586.833,400.5 592.167,400.5 597.5,400.5C 597.5,395.167 597.5,389.833 597.5,384.5C 592.167,384.5 586.833,384.5 581.5,384.5C 581.5,379.167 581.5,373.833 581.5,368.5C 586.833,368.5 592.167,368.5 597.5,368.5C 597.5,363.167 597.5,357.833 597.5,352.5 Z"/></g>
<g><path style="opacity:1" fill="#000000" d="M 613.5,352.5 C 618.833,352.5 624.167,352.5 629.5,352.5C 629.5,357.833 629.5,363.167 629.5,368.5C 624.167,368.5 618.833,368.5 613.5,368.5C 613.5,363.167 613.5,357.833 613.5,352.5 Z"/></g>
<g><path style="opacity:1" fill="#000000" d="M 36.5,416.5 C 31.1667,416.5 25.8333,416.5 20.5,416.5C 20.5,400.5 20.5,384.5 20.5,368.5C 25.8333,368.5 31.1667,368.5 36.5,368.5C 36.5,373.833 36.5,379.167 36.5,384.5C 41.8333,384.5 47.1667,384.5 52.5,384.5C 52.5,389.833 52.5,395.167 52.5,400.5C 47.1667,400.5 41.8333,400.5 36.5,400.5C 36.5,405.833 36.5,411.167 36.5,416.5 Z"/></g>
<g><path style="opacity:1" fill="#000000" d="M 100.5,368.5 C 100.5,373.833 100.5,379.167 100.5,384.5C 95.1667,384.5 89.8333,384.5 84.5,384.5C 84.5,405.833 84.5,427.167 84.5,448.5C 79.1667,448.5 73.8333,448.5 68.5,448.5C 68.5,453.833 68.5,459.167 68.5,464.5C 79.1667,464.5 89.8333,464.5 100.5,464.5C 100.5,475.167 100.5,485.833 100.5,496.5C 95.1667,496.5 89.8333,496.5 84.5,496.5C 84.5,501.833 84.5,507.167 84.5,512.5C 68.5,512.5 52.5,512.5 36.5,512.5C 36.5,523.167 36.5,533.833 36.5,544.5C 31.1667,544.5 25.8333,544.5 20.5,544.5C 20.5,523.167 20.5,501.833 20.5,480.5C 25.8333,480.5 31.1667,480.5 36.5,480.5C 36.5,485.833 36.5,491.167 36.5,496.5C 47.1667,496.5 57.8333,496.5 68.5,496.5C 68.5,491.167 68.5,485.833 68.5,480.5C 63.1667,480.5 57.8333,480.5 52.5,480.5C 52.5,475.167 52.5,469.833 52.5,464.5C 47.1667,464.5 41.8333,464.5 36.5,464.5C 36.5,459.167 36.5,453.833 36.5,448.5C 41.8333,448.5 47.1667,448.5 52.5,448.5C 52.5,443.167 52.5,437.833 52.5,432.5C 47.1667,432.5 41.8333,432.5 36.5,432.5C 36.5,427.167 36.5,421.833 36.5,416.5C 47.1667,416.5 57.8333,416.5 68.5,416.5C 68.5,400.5 68.5,384.5 68.5,368.5C 79.1667,368.5 89.8333,368.5 100.5,368.5 Z"/></g>
<g><path style="opacity:1" fill="#fefefe" d="M 100.5,368.5 C 105.833,368.5 111.167,368.5 116.5,368.5C 116.5,373.833 116.5,379.167 116.5,384.5C 111.167,384.5 105.833,384.5 100.5,384.5C 100.5,379.167 100.5,373.833 100.5,368.5 Z"/></g>
<g><path style="opacity:1" fill="#000000" d="M 116.5,368.5 C 121.833,368.5 127.167,368.5 132.5,368.5C 132.5,373.833 132.5,379.167 132.5,384.5C 127.167,384.5 121.833,384.5 116.5,384.5C 116.5,379.167 116.5,373.833 116.5,368.5 Z"/></g>
<g><path style="opacity:1" fill="#000000" d="M 212.5,368.5 C 212.5,373.833 212.5,379.167 212.5,384.5C 207.167,384.5 201.833,384.5 196.5,384.5C 196.5,389.833 196.5,395.167 196.5,400.5C 191.167,400.5 185.833,400.5 180.5,400.5C 180.5,405.833 180.5,411.167 180.5,416.5C 175.167,416.5 169.833,416.5 164.5,416.5C 164.5,400.5 164.5,384.5 164.5,368.5C 180.5,368.5 196.5,368.5 212.5,368.5 Z"/></g>
<g><path style="opacity:1" fill="#fefefe" d="M 212.5,368.5 C 217.833,368.5 223.167,368.5 228.5,368.5C 228.5,379.167 228.5,389.833 228.5,400.5C 217.833,400.5 207.167,400.5 196.5,400.5C 196.5,395.167 196.5,389.833 196.5,384.5C 201.833,384.5 207.167,384.5 212.5,384.5C 212.5,379.167 212.5,373.833 212.5,368.5 Z"/></g>
<g><path style="opacity:1" fill="#000000" d="M 276.5,384.5 C 271.167,384.5 265.833,384.5 260.5,384.5C 260.5,379.167 260.5,373.833 260.5,368.5C 265.833,368.5 271.167,368.5 276.5,368.5C 276.5,373.833 276.5,379.167 276.5,384.5 Z"/></g>
<g><path style="opacity:1" fill="#fefefe" d="M 421.5,368.5 C 426.833,368.5 432.167,368.5 437.5,368.5C 437.5,373.833 437.5,379.167 437.5,384.5C 432.167,384.5 426.833,384.5 421.5,384.5C 421.5,379.167 421.5,373.833 421.5,368.5 Z"/></g>
<g><path style="opacity:1" fill="#fefefe" d="M 533.5,368.5 C 533.5,373.833 533.5,379.167 533.5,384.5C 528.167,384.5 522.833,384.5 517.5,384.5C 517.5,379.167 517.5,373.833 517.5,368.5C 522.833,368.5 528.167,368.5 533.5,368.5 Z"/></g>
<g><path style="opacity:1" fill="#000000" d="M 629.5,368.5 C 634.833,368.5 640.167,368.5 645.5,368.5C 645.5,373.833 645.5,379.167 645.5,384.5C 650.833,384.5 656.167,384.5 661.5,384.5C 661.5,389.833 661.5,395.167 661.5,400.5C 656.167,400.5 650.833,400.5 645.5,400.5C 645.5,405.833 645.5,411.167 645.5,416.5C 640.167,416.5 634.833,416.5 629.5,416.5C 629.5,421.833 629.5,427.167 629.5,432.5C 618.833,432.5 608.167,432.5 597.5,432.5C 597.5,437.833 597.5,443.167 597.5,448.5C 613.5,448.5 629.5,448.5 645.5,448.5C 645.5,453.833 645.5,459.167 645.5,464.5C 650.833,464.5 656.167,464.5 661.5,464.5C 661.5,459.167 661.5,453.833 661.5,448.5C 666.833,448.5 672.167,448.5 677.5,448.5C 677.5,469.833 677.5,491.167 677.5,512.5C 672.167,512.5 666.833,512.5 661.5,512.5C 661.5,528.5 661.5,544.5 661.5,560.5C 650.833,560.5 640.167,560.5 629.5,560.5C 629.5,565.833 629.5,571.167 629.5,576.5C 624.167,576.5 618.833,576.5 613.5,576.5C 613.5,587.167 613.5,597.833 613.5,608.5C 608.167,608.5 602.833,608.5 597.5,608.5C 597.5,613.833 597.5,619.167 597.5,624.5C 608.167,624.5 618.833,624.5 629.5,624.5C 629.5,629.833 629.5,635.167 629.5,640.5C 624.167,640.5 618.833,640.5 613.5,640.5C 613.5,645.833 613.5,651.167 613.5,656.5C 618.833,656.5 624.167,656.5 629.5,656.5C 629.5,661.833 629.5,667.167 629.5,672.5C 613.5,672.5 597.5,672.5 581.5,672.5C 581.5,667.167 581.5,661.833 581.5,656.5C 586.833,656.5 592.167,656.5 597.5,656.5C 597.5,651.167 597.5,645.833 597.5,640.5C 586.833,640.5 576.167,640.5 565.5,640.5C 565.5,645.833 565.5,651.167 565.5,656.5C 560.167,656.5 554.833,656.5 549.5,656.5C 549.5,645.833 549.5,635.167 549.5,624.5C 560.167,624.5 570.833,624.5 581.5,624.5C 581.5,619.167 581.5,613.833 581.5,608.5C 565.5,608.5 549.5,608.5 533.5,608.5C 533.5,619.167 533.5,629.833 533.5,640.5C 528.167,640.5 522.833,640.5 517.5,640.5C 517.5,629.833 517.5,619.167 517.5,608.5C 512.167,608.5 506.833,608.5 501.5,608.5C 501.5,619.167 501.5,629.833 501.5,640.5C 496.167,640.5 490.833,640.5 485.5,640.5C 485.5,645.833 485.5,651.167 485.5,656.5C 480.167,656.5 474.833,656.5 469.5,656.5C 469.5,651.167 469.5,645.833 469.5,640.5C 464.167,640.5 458.833,640.5 453.5,640.5C 453.5,645.833 453.5,651.167 453.5,656.5C 448.167,656.5 442.833,656.5 437.5,656.5C 437.5,645.833 437.5,635.167 437.5,624.5C 442.833,624.5 448.167,624.5 453.5,624.5C 453.5,613.833 453.5,603.167 453.5,592.5C 458.833,592.5 464.167,592.5 469.5,592.5C 469.5,603.167 469.5,613.833 469.5,624.5C 474.833,624.5 480.167,624.5 485.5,624.5C 485.5,613.833 485.5,603.167 485.5,592.5C 501.5,592.5 517.5,592.5 533.5,592.5C 533.5,587.167 533.5,581.833 533.5,576.5C 522.833,576.5 512.167,576.5 501.5,576.5C 501.5,571.167 501.5,565.833 501.5,560.5C 506.833,560.5 512.167,560.5 517.5,560.5C 517.5,555.167 517.5,549.833 517.5,544.5C 522.833,544.5 528.167,544.5 533.5,544.5C 533.5,539.167 533.5,533.833 533.5,528.5C 544.167,528.5 554.833,528.5 565.5,528.5C 565.5,523.167 565.5,517.833 565.5,512.5C 570.833,512.5 576.167,512.5 581.5,512.5C 581.5,501.833 581.5,491.167 581.5,480.5C 592.167,480.5 602.833,480.5 613.5,480.5C 613.5,475.167 613.5,469.833 613.5,464.5C 602.833,464.5 592.167,464.5 581.5,464.5C 581.5,459.167 581.5,453.833 581.5,448.5C 576.167,448.5 570.833,448.5 565.5,448.5C 565.5,432.5 565.5,416.5 565.5,400.5C 570.833,400.5 576.167,400.5 581.5,400.5C 581.5,405.833 581.5,411.167 581.5,416.5C 592.167,416.5 602.833,416.5 613.5,416.5C 613.5,405.833 613.5,395.167 613.5,384.5C 618.833,384.5 624.167,384.5 629.5,384.5C 629.5,379.167 629.5,373.833 629.5,368.5 Z"/></g>
<g><path style="opacity:1" fill="#000000" d="M 100.5,384.5 C 105.833,384.5 111.167,384.5 116.5,384.5C 116.5,389.833 116.5,395.167 116.5,400.5C 121.833,400.5 127.167,400.5 132.5,400.5C 132.5,405.833 132.5,411.167 132.5,416.5C 143.167,416.5 153.833,416.5 164.5,416.5C 164.5,421.833 164.5,427.167 164.5,432.5C 169.833,432.5 175.167,432.5 180.5,432.5C 180.5,437.833 180.5,443.167 180.5,448.5C 153.833,448.5 127.167,448.5 100.5,448.5C 100.5,427.167 100.5,405.833 100.5,384.5 Z"/></g>
<g><path style="opacity:1" fill="#fefefe" d="M 116.5,384.5 C 121.833,384.5 127.167,384.5 132.5,384.5C 132.5,389.833 132.5,395.167 132.5,400.5C 127.167,400.5 121.833,400.5 116.5,400.5C 116.5,395.167 116.5,389.833 116.5,384.5 Z"/></g>
<g><path style="opacity:1" fill="#000000" d="M 132.5,384.5 C 137.833,384.5 143.167,384.5 148.5,384.5C 148.5,389.833 148.5,395.167 148.5,400.5C 143.167,400.5 137.833,400.5 132.5,400.5C 132.5,395.167 132.5,389.833 132.5,384.5 Z"/></g>
<g><path style="opacity:1" fill="#000000" d="M 276.5,384.5 C 281.5,384.5 286.5,384.5 291.5,384.5C 291.98,389.822 292.313,395.155 292.5,400.5C 287.167,400.5 281.833,400.5 276.5,400.5C 276.5,395.167 276.5,389.833 276.5,384.5 Z"/></g>
<g><path style="opacity:1" fill="#fefefe" d="M 453.5,400.5 C 453.5,395.167 453.5,389.833 453.5,384.5C 469.5,384.5 485.5,384.5 501.5,384.5C 501.5,395.167 501.5,405.833 501.5,416.5C 496.167,416.5 490.833,416.5 485.5,416.5C 485.5,411.167 485.5,405.833 485.5,400.5C 474.833,400.5 464.167,400.5 453.5,400.5 Z"/></g>
<g><path style="opacity:1" fill="#fefffe" d="M 581.5,384.5 C 581.5,389.833 581.5,395.167 581.5,400.5C 576.167,400.5 570.833,400.5 565.5,400.5C 565.5,395.167 565.5,389.833 565.5,384.5C 570.833,384.5 576.167,384.5 581.5,384.5 Z"/></g>
<g><path style="opacity:1" fill="#000000" d="M 581.5,384.5 C 586.833,384.5 592.167,384.5 597.5,384.5C 597.5,389.833 597.5,395.167 597.5,400.5C 592.167,400.5 586.833,400.5 581.5,400.5C 581.5,395.167 581.5,389.833 581.5,384.5 Z"/></g>
<g><path style="opacity:1" fill="#fefefe" d="M 196.5,400.5 C 196.5,405.833 196.5,411.167 196.5,416.5C 191.167,416.5 185.833,416.5 180.5,416.5C 180.5,411.167 180.5,405.833 180.5,400.5C 185.833,400.5 191.167,400.5 196.5,400.5 Z"/></g>
<g><path style="opacity:1" fill="#000000" d="M 196.5,400.5 C 207.167,400.5 217.833,400.5 228.5,400.5C 228.5,405.833 228.5,411.167 228.5,416.5C 223.167,416.5 217.833,416.5 212.5,416.5C 212.5,421.833 212.5,427.167 212.5,432.5C 201.833,432.5 191.167,432.5 180.5,432.5C 180.5,427.167 180.5,421.833 180.5,416.5C 185.833,416.5 191.167,416.5 196.5,416.5C 196.5,411.167 196.5,405.833 196.5,400.5 Z"/></g>
<g><path style="opacity:1" fill="#fefefe" d="M 533.5,416.5 C 528.167,416.5 522.833,416.5 517.5,416.5C 517.5,411.167 517.5,405.833 517.5,400.5C 522.833,400.5 528.167,400.5 533.5,400.5C 533.5,405.833 533.5,411.167 533.5,416.5 Z"/></g>
<g><path style="opacity:1" fill="#fefefe" d="M 565.5,400.5 C 565.5,416.5 565.5,432.5 565.5,448.5C 570.833,448.5 576.167,448.5 581.5,448.5C 581.5,453.833 581.5,459.167 581.5,464.5C 576.167,464.5 570.833,464.5 565.5,464.5C 565.5,469.833 565.5,475.167 565.5,480.5C 570.833,480.5 576.167,480.5 581.5,480.5C 581.5,491.167 581.5,501.833 581.5,512.5C 576.167,512.5 570.833,512.5 565.5,512.5C 565.5,517.833 565.5,523.167 565.5,528.5C 554.833,528.5 544.167,528.5 533.5,528.5C 533.5,533.833 533.5,539.167 533.5,544.5C 528.167,544.5 522.833,544.5 517.5,544.5C 517.5,539.167 517.5,533.833 517.5,528.5C 506.833,528.5 496.167,528.5 485.5,528.5C 485.5,523.167 485.5,517.833 485.5,512.5C 501.5,512.5 517.5,512.5 533.5,512.5C 533.5,507.167 533.5,501.833 533.5,496.5C 522.833,496.5 512.167,496.5 501.5,496.5C 501.5,491.167 501.5,485.833 501.5,480.5C 517.5,480.5 533.5,480.5 549.5,480.5C 549.5,475.167 549.5,469.833 549.5,464.5C 544.167,464.5 538.833,464.5 533.5,464.5C 533.5,459.167 533.5,453.833 533.5,448.5C 538.833,448.5 544.167,448.5 549.5,448.5C 549.5,443.167 549.5,437.833 549.5,432.5C 544.167,432.5 538.833,432.5 533.5,432.5C 533.5,427.167 533.5,421.833 533.5,416.5C 538.833,416.5 544.167,416.5 549.5,416.5C 549.5,411.167 549.5,405.833 549.5,400.5C 554.833,400.5 560.167,400.5 565.5,400.5 Z"/></g>
<g><path style="opacity:1" fill="#000000" d="M 389.5,416.5 C 400.167,416.5 410.833,416.5 421.5,416.5C 421.5,427.167 421.5,437.833 421.5,448.5C 416.167,448.5 410.833,448.5 405.5,448.5C 405.5,453.833 405.5,459.167 405.5,464.5C 400.167,464.5 394.833,464.5 389.5,464.5C 389.5,469.833 389.5,475.167 389.5,480.5C 384.167,480.5 378.833,480.5 373.5,480.5C 373.5,496.5 373.5,512.5 373.5,528.5C 368.167,528.5 362.833,528.5 357.5,528.5C 357.5,533.833 357.5,539.167 357.5,544.5C 351.833,544.5 346.167,544.5 340.5,544.5C 340.5,528.5 340.5,512.5 340.5,496.5C 335.167,496.5 329.833,496.5 324.5,496.5C 324.5,480.5 324.5,464.5 324.5,448.5C 319.167,448.5 313.833,448.5 308.5,448.5C 308.5,432.833 308.5,417.167 308.5,401.5C 313.833,401.5 319.167,401.5 324.5,401.5C 324.5,406.5 324.5,411.5 324.5,416.5C 329.833,416.5 335.167,416.5 340.5,416.5C 340.5,411.5 340.5,406.5 340.5,401.5C 356.833,401.5 373.167,401.5 389.5,401.5C 389.5,406.5 389.5,411.5 389.5,416.5 Z"/></g>
<g><path style="opacity:1" fill="#fefefe" d="M 132.5,416.5 C 132.5,421.833 132.5,427.167 132.5,432.5C 127.167,432.5 121.833,432.5 116.5,432.5C 116.5,427.167 116.5,421.833 116.5,416.5C 121.833,416.5 127.167,416.5 132.5,416.5 Z"/></g>
<g><path style="opacity:1" fill="#fefefe" d="M 164.5,416.5 C 169.833,416.5 175.167,416.5 180.5,416.5C 180.5,421.833 180.5,427.167 180.5,432.5C 175.167,432.5 169.833,432.5 164.5,432.5C 164.5,427.167 164.5,421.833 164.5,416.5 Z"/></g>
<g><path style="opacity:1" fill="#000000" d="M 260.5,464.5 C 265.833,464.5 271.167,464.5 276.5,464.5C 276.5,469.833 276.5,475.167 276.5,480.5C 281.833,480.5 287.167,480.5 292.5,480.5C 292.5,485.833 292.5,491.167 292.5,496.5C 303.167,496.5 313.833,496.5 324.5,496.5C 324.5,507.167 324.5,517.833 324.5,528.5C 308.5,528.5 292.5,528.5 276.5,528.5C 276.5,539.167 276.5,549.833 276.5,560.5C 287.167,560.5 297.833,560.5 308.5,560.5C 308.5,576.5 308.5,592.5 308.5,608.5C 303.167,608.5 297.833,608.5 292.5,608.5C 292.5,597.833 292.5,587.167 292.5,576.5C 287.167,576.5 281.833,576.5 276.5,576.5C 276.5,587.167 276.5,597.833 276.5,608.5C 271.167,608.5 265.833,608.5 260.5,608.5C 260.5,576.5 260.5,544.5 260.5,512.5C 249.833,512.5 239.167,512.5 228.5,512.5C 228.5,501.833 228.5,491.167 228.5,480.5C 223.167,480.5 217.833,480.5 212.5,480.5C 212.5,475.167 212.5,469.833 212.5,464.5C 217.833,464.5 223.167,464.5 228.5,464.5C 228.5,459.167 228.5,453.833 228.5,448.5C 233.833,448.5 239.167,448.5 244.5,448.5C 244.5,437.833 244.5,427.167 244.5,416.5C 249.833,416.5 255.167,416.5 260.5,416.5C 260.5,432.5 260.5,448.5 260.5,464.5 Z"/></g>
<g><path style="opacity:1" fill="#fefefe" d="M 389.5,416.5 C 389.5,421.833 389.5,427.167 389.5,432.5C 384.167,432.5 378.833,432.5 373.5,432.5C 373.5,427.167 373.5,421.833 373.5,416.5C 378.833,416.5 384.167,416.5 389.5,416.5 Z"/></g>
<g><path style="opacity:1" fill="#000000" d="M 661.5,416.5 C 666.833,416.5 672.167,416.5 677.5,416.5C 677.5,421.833 677.5,427.167 677.5,432.5C 672.167,432.5 666.833,432.5 661.5,432.5C 661.5,427.167 661.5,421.833 661.5,416.5 Z"/></g>
<g><path style="opacity:1" fill="#000000" d="M 276.5,432.5 C 281.833,432.5 287.167,432.5 292.5,432.5C 292.5,437.833 292.5,443.167 292.5,448.5C 287.167,448.5 281.833,448.5 276.5,448.5C 276.5,443.167 276.5,437.833 276.5,432.5 Z"/></g>
<g><path style="opacity:1" fill="#fefefe" d="M 340.5,432.5 C 346.167,432.5 351.833,432.5 357.5,432.5C 357.5,443.167 357.5,453.833 357.5,464.5C 351.833,464.5 346.167,464.5 340.5,464.5C 340.5,453.833 340.5,443.167 340.5,432.5 Z"/></g>
<g><path style="opacity:1" fill="#fefefe" d="M 485.5,464.5 C 485.5,453.833 485.5,443.167 485.5,432.5C 490.833,432.5 496.167,432.5 501.5,432.5C 501.5,443.167 501.5,453.833 501.5,464.5C 496.167,464.5 490.833,464.5 485.5,464.5 Z"/></g>
<g><path style="opacity:1" fill="#fefefe" d="M 533.5,432.5 C 533.5,437.833 533.5,443.167 533.5,448.5C 528.167,448.5 522.833,448.5 517.5,448.5C 517.5,443.167 517.5,437.833 517.5,432.5C 522.833,432.5 528.167,432.5 533.5,432.5 Z"/></g>
<g><path style="opacity:1" fill="#000000" d="M 533.5,432.5 C 538.833,432.5 544.167,432.5 549.5,432.5C 549.5,437.833 549.5,443.167 549.5,448.5C 544.167,448.5 538.833,448.5 533.5,448.5C 533.5,443.167 533.5,437.833 533.5,432.5 Z"/></g>
<g><path style="opacity:1" fill="#000000" d="M 148.5,544.5 C 137.833,544.5 127.167,544.5 116.5,544.5C 116.5,539.167 116.5,533.833 116.5,528.5C 121.833,528.5 127.167,528.5 132.5,528.5C 132.5,523.167 132.5,517.833 132.5,512.5C 127.167,512.5 121.833,512.5 116.5,512.5C 116.5,507.167 116.5,501.833 116.5,496.5C 121.833,496.5 127.167,496.5 132.5,496.5C 132.5,491.167 132.5,485.833 132.5,480.5C 127.167,480.5 121.833,480.5 116.5,480.5C 116.5,475.167 116.5,469.833 116.5,464.5C 132.5,464.5 148.5,464.5 164.5,464.5C 164.5,475.167 164.5,485.833 164.5,496.5C 159.167,496.5 153.833,496.5 148.5,496.5C 148.5,512.5 148.5,528.5 148.5,544.5 Z"/></g>
<g><path style="opacity:1" fill="#000000" d="M 212.5,480.5 C 212.5,485.833 212.5,491.167 212.5,496.5C 201.833,496.5 191.167,496.5 180.5,496.5C 180.5,485.833 180.5,475.167 180.5,464.5C 185.833,464.5 191.167,464.5 196.5,464.5C 196.5,469.833 196.5,475.167 196.5,480.5C 201.833,480.5 207.167,480.5 212.5,480.5 Z"/></g>
<g><path style="opacity:1" fill="#fefefe" d="M 260.5,464.5 C 260.5,469.833 260.5,475.167 260.5,480.5C 255.167,480.5 249.833,480.5 244.5,480.5C 244.5,475.167 244.5,469.833 244.5,464.5C 249.833,464.5 255.167,464.5 260.5,464.5 Z"/></g>
<g><path style="opacity:1" fill="#000000" d="M 292.5,480.5 C 292.5,475.167 292.5,469.833 292.5,464.5C 297.833,464.5 303.167,464.5 308.5,464.5C 308.5,469.833 308.5,475.167 308.5,480.5C 303.167,480.5 297.833,480.5 292.5,480.5 Z"/></g>
<g><path style="opacity:1" fill="#fefefe" d="M 405.5,464.5 C 405.5,469.833 405.5,475.167 405.5,480.5C 400.167,480.5 394.833,480.5 389.5,480.5C 389.5,475.167 389.5,469.833 389.5,464.5C 394.833,464.5 400.167,464.5 405.5,464.5 Z"/></g>
<g><path style="opacity:1" fill="#000000" d="M 405.5,464.5 C 410.833,464.5 416.167,464.5 421.5,464.5C 421.5,469.833 421.5,475.167 421.5,480.5C 426.833,480.5 432.167,480.5 437.5,480.5C 437.5,485.833 437.5,491.167 437.5,496.5C 426.833,496.5 416.167,496.5 405.5,496.5C 405.5,501.833 405.5,507.167 405.5,512.5C 400.167,512.5 394.833,512.5 389.5,512.5C 389.5,501.833 389.5,491.167 389.5,480.5C 394.833,480.5 400.167,480.5 405.5,480.5C 405.5,475.167 405.5,469.833 405.5,464.5 Z"/></g>
<g><path style="opacity:1" fill="#000000" d="M 469.5,464.5 C 469.5,469.833 469.5,475.167 469.5,480.5C 464.167,480.5 458.833,480.5 453.5,480.5C 453.5,475.167 453.5,469.833 453.5,464.5C 458.833,464.5 464.167,464.5 469.5,464.5 Z"/></g>
<g><path style="opacity:1" fill="#fefefe" d="M 469.5,464.5 C 474.833,464.5 480.167,464.5 485.5,464.5C 485.5,469.833 485.5,475.167 485.5,480.5C 480.167,480.5 474.833,480.5 469.5,480.5C 469.5,475.167 469.5,469.833 469.5,464.5 Z"/></g>
<g><path style="opacity:1" fill="#000000" d="M 581.5,464.5 C 581.5,469.833 581.5,475.167 581.5,480.5C 576.167,480.5 570.833,480.5 565.5,480.5C 565.5,475.167 565.5,469.833 565.5,464.5C 570.833,464.5 576.167,464.5 581.5,464.5 Z"/></g>
<g><path style="opacity:1" fill="#fefffe" d="M 581.5,464.5 C 592.167,464.5 602.833,464.5 613.5,464.5C 613.5,469.833 613.5,475.167 613.5,480.5C 602.833,480.5 592.167,480.5 581.5,480.5C 581.5,475.167 581.5,469.833 581.5,464.5 Z"/></g>
<g><path style="opacity:1" fill="#fefefe" d="M 389.5,480.5 C 389.5,491.167 389.5,501.833 389.5,512.5C 394.833,512.5 400.167,512.5 405.5,512.5C 405.5,533.833 405.5,555.167 405.5,576.5C 400.167,576.5 394.833,576.5 389.5,576.5C 389.5,560.5 389.5,544.5 389.5,528.5C 384.167,528.5 378.833,528.5 373.5,528.5C 373.5,512.5 373.5,496.5 373.5,480.5C 378.833,480.5 384.167,480.5 389.5,480.5 Z"/></g>
<g><path style="opacity:1" fill="#fefefe" d="M 613.5,480.5 C 618.833,480.5 624.167,480.5 629.5,480.5C 629.5,491.167 629.5,501.833 629.5,512.5C 634.833,512.5 640.167,512.5 645.5,512.5C 645.5,517.833 645.5,523.167 645.5,528.5C 640.167,528.5 634.833,528.5 629.5,528.5C 629.5,533.833 629.5,539.167 629.5,544.5C 624.167,544.5 618.833,544.5 613.5,544.5C 613.5,539.167 613.5,533.833 613.5,528.5C 608.167,528.5 602.833,528.5 597.5,528.5C 597.5,517.833 597.5,507.167 597.5,496.5C 602.833,496.5 608.167,496.5 613.5,496.5C 613.5,491.167 613.5,485.833 613.5,480.5 Z"/></g>
<g><path style="opacity:1" fill="#fefefe" d="M 260.5,512.5 C 260.5,507.167 260.5,501.833 260.5,496.5C 265.833,496.5 271.167,496.5 276.5,496.5C 276.5,501.833 276.5,507.167 276.5,512.5C 271.167,512.5 265.833,512.5 260.5,512.5 Z"/></g>
<g><path style="opacity:1" fill="#fefefe" d="M 324.5,496.5 C 329.833,496.5 335.167,496.5 340.5,496.5C 340.5,512.5 340.5,528.5 340.5,544.5C 346.167,544.5 351.833,544.5 357.5,544.5C 357.5,555.167 357.5,565.833 357.5,576.5C 351.833,576.5 346.167,576.5 340.5,576.5C 340.5,581.833 340.5,587.167 340.5,592.5C 335.167,592.5 329.833,592.5 324.5,592.5C 324.5,597.833 324.5,603.167 324.5,608.5C 319.167,608.5 313.833,608.5 308.5,608.5C 308.5,592.5 308.5,576.5 308.5,560.5C 297.833,560.5 287.167,560.5 276.5,560.5C 276.5,549.833 276.5,539.167 276.5,528.5C 292.5,528.5 308.5,528.5 324.5,528.5C 324.5,517.833 324.5,507.167 324.5,496.5 Z"/></g>
<g><path style="opacity:1" fill="#000000" d="M 565.5,512.5 C 560.167,512.5 554.833,512.5 549.5,512.5C 549.5,507.167 549.5,501.833 549.5,496.5C 554.833,496.5 560.167,496.5 565.5,496.5C 565.5,501.833 565.5,507.167 565.5,512.5 Z"/></g>
<g><path style="opacity:1" fill="#000000" d="M 84.5,512.5 C 95.1667,512.5 105.833,512.5 116.5,512.5C 116.5,517.833 116.5,523.167 116.5,528.5C 105.833,528.5 95.1667,528.5 84.5,528.5C 84.5,523.167 84.5,517.833 84.5,512.5 Z"/></g>
<g><path style="opacity:1" fill="#fefefe" d="M 116.5,512.5 C 121.833,512.5 127.167,512.5 132.5,512.5C 132.5,517.833 132.5,523.167 132.5,528.5C 127.167,528.5 121.833,528.5 116.5,528.5C 116.5,523.167 116.5,517.833 116.5,512.5 Z"/></g>
<g><path style="opacity:1" fill="#000000" d="M 228.5,512.5 C 228.5,517.833 228.5,523.167 228.5,528.5C 233.833,528.5 239.167,528.5 244.5,528.5C 244.5,533.833 244.5,539.167 244.5,544.5C 228.5,544.5 212.5,544.5 196.5,544.5C 196.5,555.167 196.5,565.833 196.5,576.5C 191.167,576.5 185.833,576.5 180.5,576.5C 180.5,571.167 180.5,565.833 180.5,560.5C 169.833,560.5 159.167,560.5 148.5,560.5C 148.5,555.167 148.5,549.833 148.5,544.5C 153.833,544.5 159.167,544.5 164.5,544.5C 164.5,533.833 164.5,523.167 164.5,512.5C 185.833,512.5 207.167,512.5 228.5,512.5 Z"/></g>
<g><path style="opacity:1" fill="#fefefe" d="M 228.5,512.5 C 239.167,512.5 249.833,512.5 260.5,512.5C 260.5,544.5 260.5,576.5 260.5,608.5C 255.167,608.5 249.833,608.5 244.5,608.5C 244.5,613.833 244.5,619.167 244.5,624.5C 249.833,624.5 255.167,624.5 260.5,624.5C 260.5,629.833 260.5,635.167 260.5,640.5C 244.5,640.5 228.5,640.5 212.5,640.5C 212.5,635.167 212.5,629.833 212.5,624.5C 217.833,624.5 223.167,624.5 228.5,624.5C 228.5,613.833 228.5,603.167 228.5,592.5C 223.167,592.5 217.833,592.5 212.5,592.5C 212.5,597.833 212.5,603.167 212.5,608.5C 207.167,608.5 201.833,608.5 196.5,608.5C 196.5,603.167 196.5,597.833 196.5,592.5C 191.167,592.5 185.833,592.5 180.5,592.5C 180.5,587.167 180.5,581.833 180.5,576.5C 185.833,576.5 191.167,576.5 196.5,576.5C 196.5,565.833 196.5,555.167 196.5,544.5C 212.5,544.5 228.5,544.5 244.5,544.5C 244.5,539.167 244.5,533.833 244.5,528.5C 239.167,528.5 233.833,528.5 228.5,528.5C 228.5,523.167 228.5,517.833 228.5,512.5 Z"/></g>
<g><path style="opacity:1" fill="#fefefe" d="M 196.5,544.5 C 191.167,544.5 185.833,544.5 180.5,544.5C 180.5,539.167 180.5,533.833 180.5,528.5C 185.833,528.5 191.167,528.5 196.5,528.5C 196.5,533.833 196.5,539.167 196.5,544.5 Z"/></g>
<g><path style="opacity:1" fill="#fefefe" d="M 373.5,528.5 C 373.5,533.833 373.5,539.167 373.5,544.5C 368.167,544.5 362.833,544.5 357.5,544.5C 357.5,539.167 357.5,533.833 357.5,528.5C 362.833,528.5 368.167,528.5 373.5,528.5 Z"/></g>
<g><path style="opacity:1" fill="#000000" d="M 373.5,528.5 C 378.833,528.5 384.167,528.5 389.5,528.5C 389.5,544.5 389.5,560.5 389.5,576.5C 384.167,576.5 378.833,576.5 373.5,576.5C 373.5,587.167 373.5,597.833 373.5,608.5C 368.167,608.5 362.833,608.5 357.5,608.5C 357.5,603.167 357.5,597.833 357.5,592.5C 351.833,592.5 346.167,592.5 340.5,592.5C 340.5,587.167 340.5,581.833 340.5,576.5C 346.167,576.5 351.833,576.5 357.5,576.5C 357.5,565.833 357.5,555.167 357.5,544.5C 362.833,544.5 368.167,544.5 373.5,544.5C 373.5,539.167 373.5,533.833 373.5,528.5 Z"/></g>
<g><path style="opacity:1" fill="#fefefe" d="M 469.5,544.5 C 464.167,544.5 458.833,544.5 453.5,544.5C 453.5,539.167 453.5,533.833 453.5,528.5C 458.833,528.5 464.167,528.5 469.5,528.5C 469.5,533.833 469.5,539.167 469.5,544.5 Z"/></g>
<g><path style="opacity:1" fill="#000000" d="M 308.5,560.5 C 308.5,555.167 308.5,549.833 308.5,544.5C 313.833,544.5 319.167,544.5 324.5,544.5C 324.5,549.833 324.5,555.167 324.5,560.5C 319.167,560.5 313.833,560.5 308.5,560.5 Z"/></g>
<g><path style="opacity:1" fill="#fefefe" d="M 469.5,544.5 C 485.5,544.5 501.5,544.5 517.5,544.5C 517.5,549.833 517.5,555.167 517.5,560.5C 512.167,560.5 506.833,560.5 501.5,560.5C 501.5,565.833 501.5,571.167 501.5,576.5C 512.167,576.5 522.833,576.5 533.5,576.5C 533.5,581.833 533.5,587.167 533.5,592.5C 517.5,592.5 501.5,592.5 485.5,592.5C 485.5,581.833 485.5,571.167 485.5,560.5C 480.167,560.5 474.833,560.5 469.5,560.5C 469.5,555.167 469.5,549.833 469.5,544.5 Z"/></g>
<g><path style="opacity:1" fill="#fefefe" d="M 549.5,544.5 C 565.5,544.5 581.5,544.5 597.5,544.5C 597.5,560.5 597.5,576.5 597.5,592.5C 581.5,592.5 565.5,592.5 549.5,592.5C 549.5,576.5 549.5,560.5 549.5,544.5 Z"/></g>
<g><path style="opacity:1" fill="#000000" d="M 20.5,560.5 C 57.8333,560.5 95.1667,560.5 132.5,560.5C 132.5,597.833 132.5,635.167 132.5,672.5C 95.1667,672.5 57.8333,672.5 20.5,672.5C 20.5,635.167 20.5,597.833 20.5,560.5 Z"/></g>
<g><path style="opacity:1" fill="#000000" d="M 212.5,560.5 C 217.833,560.5 223.167,560.5 228.5,560.5C 228.5,565.833 228.5,571.167 228.5,576.5C 223.167,576.5 217.833,576.5 212.5,576.5C 212.5,571.167 212.5,565.833 212.5,560.5 Z"/></g>
<g><path style="opacity:1" fill="#fefffe" d="M 453.5,576.5 C 448.167,576.5 442.833,576.5 437.5,576.5C 437.5,571.167 437.5,565.833 437.5,560.5C 442.833,560.5 448.167,560.5 453.5,560.5C 453.5,565.833 453.5,571.167 453.5,576.5 Z"/></g>
<g><path style="opacity:1" fill="#000000" d="M 565.5,560.5 C 570.833,560.5 576.167,560.5 581.5,560.5C 581.5,565.833 581.5,571.167 581.5,576.5C 576.167,576.5 570.833,576.5 565.5,576.5C 565.5,571.167 565.5,565.833 565.5,560.5 Z"/></g>
<g><path style="opacity:1" fill="#fefefe" d="M 36.5,576.5 C 63.1667,576.5 89.8333,576.5 116.5,576.5C 116.5,603.167 116.5,629.833 116.5,656.5C 89.8333,656.5 63.1667,656.5 36.5,656.5C 36.5,629.833 36.5,603.167 36.5,576.5 Z"/></g>
<g><path style="opacity:1" fill="#000000" d="M 180.5,576.5 C 180.5,581.833 180.5,587.167 180.5,592.5C 169.833,592.5 159.167,592.5 148.5,592.5C 148.5,587.167 148.5,581.833 148.5,576.5C 159.167,576.5 169.833,576.5 180.5,576.5 Z"/></g>
<g><path style="opacity:1" fill="#fefefe" d="M 292.5,608.5 C 287.167,608.5 281.833,608.5 276.5,608.5C 276.5,597.833 276.5,587.167 276.5,576.5C 281.833,576.5 287.167,576.5 292.5,576.5C 292.5,587.167 292.5,597.833 292.5,608.5 Z"/></g>
<g><path style="opacity:1" fill="#fefffe" d="M 389.5,576.5 C 389.5,587.167 389.5,597.833 389.5,608.5C 384.167,608.5 378.833,608.5 373.5,608.5C 373.5,597.833 373.5,587.167 373.5,576.5C 378.833,576.5 384.167,576.5 389.5,576.5 Z"/></g>
<g><path style="opacity:1" fill="#fefefe" d="M 437.5,576.5 C 437.5,581.833 437.5,587.167 437.5,592.5C 442.833,592.5 448.167,592.5 453.5,592.5C 453.5,603.167 453.5,613.833 453.5,624.5C 448.167,624.5 442.833,624.5 437.5,624.5C 437.5,619.167 437.5,613.833 437.5,608.5C 432.167,608.5 426.833,608.5 421.5,608.5C 421.5,597.833 421.5,587.167 421.5,576.5C 426.833,576.5 432.167,576.5 437.5,576.5 Z"/></g>
<g><path style="opacity:1" fill="#000000" d="M 437.5,576.5 C 442.833,576.5 448.167,576.5 453.5,576.5C 453.5,581.833 453.5,587.167 453.5,592.5C 448.167,592.5 442.833,592.5 437.5,592.5C 437.5,587.167 437.5,581.833 437.5,576.5 Z"/></g>
<g><path style="opacity:1" fill="#fefffe" d="M 453.5,576.5 C 458.833,576.5 464.167,576.5 469.5,576.5C 469.5,581.833 469.5,587.167 469.5,592.5C 464.167,592.5 458.833,592.5 453.5,592.5C 453.5,587.167 453.5,581.833 453.5,576.5 Z"/></g>
<g><path style="opacity:1" fill="#000000" d="M 661.5,608.5 C 656.167,608.5 650.833,608.5 645.5,608.5C 645.5,597.833 645.5,587.167 645.5,576.5C 650.833,576.5 656.167,576.5 661.5,576.5C 661.5,587.167 661.5,597.833 661.5,608.5 Z"/></g>
<g><path style="opacity:1" fill="#000000" d="M 52.5,592.5 C 68.5,592.5 84.5,592.5 100.5,592.5C 100.5,608.5 100.5,624.5 100.5,640.5C 84.5,640.5 68.5,640.5 52.5,640.5C 52.5,624.5 52.5,608.5 52.5,592.5 Z"/></g>
<g><path style="opacity:1" fill="#000000" d="M 180.5,592.5 C 185.833,592.5 191.167,592.5 196.5,592.5C 196.5,597.833 196.5,603.167 196.5,608.5C 201.833,608.5 207.167,608.5 212.5,608.5C 212.5,603.167 212.5,597.833 212.5,592.5C 217.833,592.5 223.167,592.5 228.5,592.5C 228.5,603.167 228.5,613.833 228.5,624.5C 223.167,624.5 217.833,624.5 212.5,624.5C 212.5,629.833 212.5,635.167 212.5,640.5C 207.167,640.5 201.833,640.5 196.5,640.5C 196.5,635.167 196.5,629.833 196.5,624.5C 191.167,624.5 185.833,624.5 180.5,624.5C 180.5,613.833 180.5,603.167 180.5,592.5 Z"/></g>
<g><path style="opacity:1" fill="#000000" d="M 340.5,592.5 C 340.5,597.833 340.5,603.167 340.5,608.5C 335.167,608.5 329.833,608.5 324.5,608.5C 324.5,603.167 324.5,597.833 324.5,592.5C 329.833,592.5 335.167,592.5 340.5,592.5 Z"/></g>
<g><path style="opacity:1" fill="#fefefe" d="M 340.5,592.5 C 346.167,592.5 351.833,592.5 357.5,592.5C 357.5,597.833 357.5,603.167 357.5,608.5C 351.833,608.5 346.167,608.5 340.5,608.5C 340.5,603.167 340.5,597.833 340.5,592.5 Z"/></g>
<g><path style="opacity:1" fill="#fefefe" d="M 469.5,592.5 C 474.833,592.5 480.167,592.5 485.5,592.5C 485.5,603.167 485.5,613.833 485.5,624.5C 480.167,624.5 474.833,624.5 469.5,624.5C 469.5,613.833 469.5,603.167 469.5,592.5 Z"/></g>
<g><path style="opacity:1" fill="#000000" d="M 260.5,608.5 C 260.5,613.833 260.5,619.167 260.5,624.5C 255.167,624.5 249.833,624.5 244.5,624.5C 244.5,619.167 244.5,613.833 244.5,608.5C 249.833,608.5 255.167,608.5 260.5,608.5 Z"/></g>
<g><path style="opacity:1" fill="#fefefe" d="M 260.5,608.5 C 265.833,608.5 271.167,608.5 276.5,608.5C 276.5,613.833 276.5,619.167 276.5,624.5C 271.167,624.5 265.833,624.5 260.5,624.5C 260.5,619.167 260.5,613.833 260.5,608.5 Z"/></g>
<g><path style="opacity:1" fill="#000000" d="M 276.5,608.5 C 281.833,608.5 287.167,608.5 292.5,608.5C 292.5,613.833 292.5,619.167 292.5,624.5C 297.833,624.5 303.167,624.5 308.5,624.5C 308.5,629.833 308.5,635.167 308.5,640.5C 303.167,640.5 297.833,640.5 292.5,640.5C 292.5,651.167 292.5,661.833 292.5,672.5C 281.833,672.5 271.167,672.5 260.5,672.5C 260.5,667.167 260.5,661.833 260.5,656.5C 265.833,656.5 271.167,656.5 276.5,656.5C 276.5,651.167 276.5,645.833 276.5,640.5C 271.167,640.5 265.833,640.5 260.5,640.5C 260.5,635.167 260.5,629.833 260.5,624.5C 265.833,624.5 271.167,624.5 276.5,624.5C 276.5,619.167 276.5,613.833 276.5,608.5 Z"/></g>
<g><path style="opacity:1" fill="#fefefe" d="M 292.5,608.5 C 297.833,608.5 303.167,608.5 308.5,608.5C 308.5,613.833 308.5,619.167 308.5,624.5C 303.167,624.5 297.833,624.5 292.5,624.5C 292.5,619.167 292.5,613.833 292.5,608.5 Z"/></g>
<g><path style="opacity:1" fill="#000000" d="M 308.5,608.5 C 313.833,608.5 319.167,608.5 324.5,608.5C 324.5,613.833 324.5,619.167 324.5,624.5C 319.167,624.5 313.833,624.5 308.5,624.5C 308.5,619.167 308.5,613.833 308.5,608.5 Z"/></g>
<g><path style="opacity:1" fill="#000000" d="M 340.5,608.5 C 346.167,608.5 351.833,608.5 357.5,608.5C 357.5,613.833 357.5,619.167 357.5,624.5C 362.833,624.5 368.167,624.5 373.5,624.5C 373.5,619.167 373.5,613.833 373.5,608.5C 378.833,608.5 384.167,608.5 389.5,608.5C 389.5,619.167 389.5,629.833 389.5,640.5C 373.167,640.5 356.833,640.5 340.5,640.5C 340.5,629.833 340.5,619.167 340.5,608.5 Z"/></g>
<g><path style="opacity:1" fill="#fefefe" d="M 357.5,608.5 C 362.833,608.5 368.167,608.5 373.5,608.5C 373.5,613.833 373.5,619.167 373.5,624.5C 368.167,624.5 362.833,624.5 357.5,624.5C 357.5,619.167 357.5,613.833 357.5,608.5 Z"/></g>
<g><path style="opacity:1" fill="#000000" d="M 421.5,608.5 C 426.833,608.5 432.167,608.5 437.5,608.5C 437.5,613.833 437.5,619.167 437.5,624.5C 432.167,624.5 426.833,624.5 421.5,624.5C 421.5,619.167 421.5,613.833 421.5,608.5 Z"/></g>
<g><path style="opacity:1" fill="#fefffe" d="M 517.5,640.5 C 512.167,640.5 506.833,640.5 501.5,640.5C 501.5,629.833 501.5,619.167 501.5,608.5C 506.833,608.5 512.167,608.5 517.5,608.5C 517.5,619.167 517.5,629.833 517.5,640.5 Z"/></g>
<g><path style="opacity:1" fill="#000000" d="M 661.5,608.5 C 666.833,608.5 672.167,608.5 677.5,608.5C 677.5,613.833 677.5,619.167 677.5,624.5C 672.167,624.5 666.833,624.5 661.5,624.5C 661.5,619.167 661.5,613.833 661.5,608.5 Z"/></g>
<g><path style="opacity:1" fill="#000000" d="M 661.5,624.5 C 661.5,629.833 661.5,635.167 661.5,640.5C 656.167,640.5 650.833,640.5 645.5,640.5C 645.5,635.167 645.5,629.833 645.5,624.5C 650.833,624.5 656.167,624.5 661.5,624.5 Z"/></g>
<g><path style="opacity:1" fill="#000000" d="M 212.5,640.5 C 228.5,640.5 244.5,640.5 260.5,640.5C 260.5,645.833 260.5,651.167 260.5,656.5C 244.5,656.5 228.5,656.5 212.5,656.5C 212.5,651.167 212.5,645.833 212.5,640.5 Z"/></g>
<g><path style="opacity:1" fill="#fefefe" d="M 260.5,640.5 C 265.833,640.5 271.167,640.5 276.5,640.5C 276.5,645.833 276.5,651.167 276.5,656.5C 271.167,656.5 265.833,656.5 260.5,656.5C 260.5,651.167 260.5,645.833 260.5,640.5 Z"/></g>
<g><path style="opacity:1" fill="#000000" d="M 340.5,640.5 C 340.5,651.167 340.5,661.833 340.5,672.5C 335.167,672.5 329.833,672.5 324.5,672.5C 324.5,661.833 324.5,651.167 324.5,640.5C 329.833,640.5 335.167,640.5 340.5,640.5 Z"/></g>
<g><path style="opacity:1" fill="#000000" d="M 421.5,656.5 C 416.167,656.5 410.833,656.5 405.5,656.5C 405.5,651.167 405.5,645.833 405.5,640.5C 410.833,640.5 416.167,640.5 421.5,640.5C 421.5,645.833 421.5,651.167 421.5,656.5 Z"/></g>
<g><path style="opacity:1" fill="#fefffe" d="M 469.5,656.5 C 464.167,656.5 458.833,656.5 453.5,656.5C 453.5,651.167 453.5,645.833 453.5,640.5C 458.833,640.5 464.167,640.5 469.5,640.5C 469.5,645.833 469.5,651.167 469.5,656.5 Z"/></g>
<g><path style="opacity:1" fill="#fefffe" d="M 501.5,640.5 C 501.5,645.833 501.5,651.167 501.5,656.5C 496.167,656.5 490.833,656.5 485.5,656.5C 485.5,651.167 485.5,645.833 485.5,640.5C 490.833,640.5 496.167,640.5 501.5,640.5 Z"/></g>
<g><path style="opacity:1" fill="#000000" d="M 501.5,640.5 C 506.833,640.5 512.167,640.5 517.5,640.5C 517.5,645.833 517.5,651.167 517.5,656.5C 512.167,656.5 506.833,656.5 501.5,656.5C 501.5,651.167 501.5,645.833 501.5,640.5 Z"/></g>
<g><path style="opacity:1" fill="#fefefe" d="M 629.5,640.5 C 629.5,645.833 629.5,651.167 629.5,656.5C 624.167,656.5 618.833,656.5 613.5,656.5C 613.5,651.167 613.5,645.833 613.5,640.5C 618.833,640.5 624.167,640.5 629.5,640.5 Z"/></g>
<g><path style="opacity:1" fill="#000000" d="M 629.5,640.5 C 634.833,640.5 640.167,640.5 645.5,640.5C 645.5,645.833 645.5,651.167 645.5,656.5C 640.167,656.5 634.833,656.5 629.5,656.5C 629.5,651.167 629.5,645.833 629.5,640.5 Z"/></g>
<g><path style="opacity:1" fill="#000000" d="M 661.5,640.5 C 666.833,640.5 672.167,640.5 677.5,640.5C 677.5,645.833 677.5,651.167 677.5,656.5C 672.167,656.5 666.833,656.5 661.5,656.5C 661.5,651.167 661.5,645.833 661.5,640.5 Z"/></g>
<g><path style="opacity:1" fill="#000000" d="M 405.5,656.5 C 405.5,661.833 405.5,667.167 405.5,672.5C 389.5,672.5 373.5,672.5 357.5,672.5C 357.5,667.167 357.5,661.833 357.5,656.5C 373.5,656.5 389.5,656.5 405.5,656.5 Z"/></g>
<g><path style="opacity:1" fill="#000000" d="M 421.5,656.5 C 426.833,656.5 432.167,656.5 437.5,656.5C 437.5,661.833 437.5,667.167 437.5,672.5C 432.167,672.5 426.833,672.5 421.5,672.5C 421.5,667.167 421.5,661.833 421.5,656.5 Z"/></g>
<g><path style="opacity:1" fill="#000000" d="M 453.5,656.5 C 458.833,656.5 464.167,656.5 469.5,656.5C 469.5,661.833 469.5,667.167 469.5,672.5C 464.167,672.5 458.833,672.5 453.5,672.5C 453.5,667.167 453.5,661.833 453.5,656.5 Z"/></g>
<g><path style="opacity:1" fill="#000000" d="M 485.5,656.5 C 490.833,656.5 496.167,656.5 501.5,656.5C 501.5,661.833 501.5,667.167 501.5,672.5C 496.167,672.5 490.833,672.5 485.5,672.5C 485.5,667.167 485.5,661.833 485.5,656.5 Z"/></g>
</svg>
